<svg width="379" height="444" viewBox="0 0 379 444" fill="none" xmlns="http://www.w3.org/2000/svg">
<path d="M185.334 344.908C185.65 358.192 175.085 384.487 169.075 419.377C158.929 422.272 148.176 422.272 138.03 419.377L153.462 339.567C163.251 344.683 174.412 346.553 185.334 344.908V344.908Z" fill="white"/>
<path d="M314.527 390.312C310.986 401.862 306.817 405.273 295.934 412.419L238.672 350.66C248.815 346.932 257.528 340.106 263.576 331.15C271.639 337.774 278.932 345.283 285.317 353.535C294.064 365.526 314.527 390.312 314.527 390.312Z" fill="white"/>
<path d="M258.342 319.731C283.851 305.169 303.067 281.68 312.285 253.792C321.503 225.903 320.072 195.59 308.266 168.694C308.226 168.582 308.23 168.458 308.277 168.348C308.324 168.238 308.411 168.15 308.521 168.102C308.63 168.054 308.754 168.049 308.867 168.088C308.98 168.127 309.074 168.208 309.13 168.313C321.03 195.421 322.474 225.975 313.185 254.085C303.895 282.194 284.53 305.871 258.821 320.55C258.712 320.614 258.583 320.632 258.461 320.6C258.339 320.568 258.235 320.489 258.172 320.38C258.108 320.271 258.091 320.142 258.122 320.02C258.154 319.898 258.233 319.794 258.342 319.731V319.731Z" fill="#6700E8"/>
<path d="M306.945 165.819C297.271 145.554 282.071 128.431 263.095 116.423C244.119 104.414 222.138 98.0073 199.682 97.9397C179.372 97.8719 159.39 103.049 141.668 112.969C123.946 122.89 109.086 137.217 98.5263 154.565C98.4598 154.672 98.3538 154.747 98.2316 154.776C98.1094 154.804 97.981 154.782 97.8746 154.716C97.7683 154.649 97.6927 154.543 97.6645 154.421C97.6363 154.299 97.6578 154.171 97.7242 154.064C108.369 136.579 123.349 122.138 141.212 112.14C159.076 102.143 179.218 96.9265 199.689 96.9973C222.325 97.0658 244.481 103.524 263.608 115.63C282.735 127.735 298.055 144.995 307.805 165.423C307.831 165.48 307.846 165.541 307.848 165.603C307.851 165.665 307.841 165.727 307.819 165.785C307.798 165.844 307.765 165.897 307.723 165.943C307.68 165.988 307.63 166.025 307.573 166.051C307.459 166.104 307.329 166.109 307.211 166.065C307.094 166.022 306.998 165.933 306.945 165.819Z" fill="#6700E8"/>
<path d="M153.475 326.914C126.155 315.471 104.053 294.299 91.4464 267.496C78.84 240.694 76.6265 210.167 85.2346 181.826C85.2711 181.706 85.3537 181.606 85.4642 181.547C85.5746 181.488 85.7039 181.476 85.8236 181.512C85.9432 181.549 86.0435 181.631 86.1022 181.742C86.161 181.852 86.1735 181.982 86.1369 182.101C77.5972 210.218 79.7937 240.503 92.3011 267.093C104.808 293.683 126.737 314.687 153.841 326.037C153.958 326.085 154.05 326.178 154.098 326.295C154.146 326.411 154.145 326.542 154.097 326.659C154.048 326.775 153.956 326.867 153.839 326.915C153.722 326.963 153.592 326.963 153.475 326.914V326.914Z" fill="#6700E8"/>
<path d="M189.42 335.729C189.169 335.707 189.139 334.787 189.748 334.807C190.823 334.84 193.412 335.221 199.689 335.221C206.365 335.494 213.05 334.946 219.592 333.586C219.713 333.553 219.842 333.569 219.951 333.631C220.06 333.693 220.139 333.795 220.173 333.916C220.206 334.037 220.19 334.166 220.128 334.274C220.066 334.383 219.964 334.463 219.843 334.496C212.073 336.592 197.375 336.404 189.42 335.729Z" fill="#6700E8"/>
<path d="M335.141 157.323C337.108 157.944 341.003 159.563 343.219 160.478C349.265 162.985 348.149 164.501 347.099 164.396C342.668 163.99 336.98 162.774 332.902 162.453C333.847 163.032 334.657 163.531 335.081 163.797C340.635 167.258 339.284 168.572 338.274 168.308C334.263 167.243 327.965 164.859 324.213 163.987C319.632 163.041 314.977 162.496 310.302 162.358L303.968 164.639L302.158 163.787C296.868 160.994 292.718 156.443 290.423 150.919L289.794 148.269C291.177 147.299 292.754 146.638 294.416 146.332C303.345 143.452 312.085 140.014 320.583 136.038C330.774 131.466 327.992 135.01 325.396 138.098C323.503 140.354 314.059 146.64 319.129 148.174C324.087 148.858 341.552 151.352 345.001 152.525C354.754 155.819 353.242 158.039 343.821 157.44C340.482 157.227 336.386 157.25 335.141 157.323Z" fill="white"/>
<path d="M88.6855 155.879C84.5574 161.708 81.9174 168.459 80.9957 175.542L72.7043 174.632C68.1841 175.853 63.784 177.481 59.558 179.497C56.1241 181.252 50.5774 185.036 46.923 187.017C45.9981 187.518 44.3764 186.56 48.9557 181.886C49.3141 181.527 49.9758 180.853 50.7603 180.069C47.0633 181.284 41.2358 183.994 37.421 185.315C36.4184 185.658 34.9847 184.447 40.2683 180.58C41.4213 179.738 45.404 176.845 47.3917 175.6C44.5426 176.171 41.7262 176.896 38.9549 177.77C29.9442 180.595 27.9491 178.773 36.644 173.281C38.3759 172.178 49.1763 167.396 60.9014 162.874C65.4732 160.175 54.6629 156.358 52.2868 154.621C49.0284 152.229 45.4993 149.44 56.4826 151.48C65.6641 153.353 74.9575 154.627 84.3042 155.295C85.7884 155.212 87.2749 155.41 88.6855 155.879V155.879Z" fill="white"/>
<path d="M200.766 139.597C200.749 139.334 198.052 126.035 201.719 124.107C210.241 119.638 206.336 111.825 201.889 115.55C199.751 117.335 198.947 117.054 198.814 115.615C198.886 107.692 191.139 94.0371 182.687 113.57C179.905 119.996 179.121 124.443 179.532 127.488C180.246 132.827 184.723 134.256 190.091 133.601L193.816 132.824L189.906 138.426C189.502 141.151 188.43 143.893 185.688 143.251C183.629 142.743 181.534 142.392 179.421 142.201C179.421 142.201 185.577 164.323 191.909 174.712C196.424 162.657 202.794 151.381 210.79 141.291C204.569 141.9 202.13 146.171 200.766 139.597Z" fill="white"/>
<path d="M333.418 50.8434C314.91 47.3344 296.235 57.9166 292.834 75.908C291.716 81.9527 292.477 88.1949 295.014 93.794L287.006 106.905C286.963 106.977 286.94 107.059 286.939 107.142C286.938 107.226 286.959 107.308 287 107.381C287.041 107.454 287.1 107.514 287.172 107.557C287.244 107.599 287.326 107.622 287.41 107.622C287.66 107.622 289.916 107.121 302.664 104.527C322.615 123.45 357.174 114.765 362.049 88.9866C365.345 71.5693 352.5 54.4627 333.418 50.8434ZM361.122 88.8287C357.981 105.439 340.599 116.741 321.64 113.154C314.65 111.86 308.191 108.549 303.06 103.629C302.975 103.574 302.967 103.537 302.589 103.592C301.709 103.722 298.829 104.359 288.377 106.482L295.897 94.2001C296.012 93.8567 296.117 93.9494 295.917 93.5033C285.457 70.1932 307.01 46.8231 333.263 51.7783C351.81 55.2824 364.32 71.9052 361.122 88.8287V88.8287Z" fill="#6700E8"/>
<path d="M327.804 86.9539C327.641 86.9519 327.485 86.8854 327.371 86.7689C327.257 86.6524 327.194 86.4954 327.195 86.3323C327.26 80.7379 333.712 77.66 333.739 72.2285C333.775 71.4916 333.656 70.7555 333.39 70.0673C333.124 69.3792 332.717 68.7542 332.196 68.2324C331.674 67.7107 331.049 67.3038 330.361 67.0377C329.673 66.7716 328.937 66.6523 328.2 66.6874C327.463 66.7225 326.742 66.9112 326.082 67.2415C325.422 67.5717 324.839 68.0362 324.369 68.6051C323.9 69.1741 323.554 69.8349 323.355 70.5452C323.156 71.2555 323.107 71.9996 323.212 72.7298C323.231 72.8892 323.187 73.0497 323.09 73.1771C322.992 73.3044 322.848 73.3884 322.689 73.411C322.53 73.4336 322.369 73.393 322.239 73.298C322.11 73.203 322.023 73.0611 321.997 72.9027C321.874 72.0077 321.938 71.0968 322.186 70.228C322.434 69.3592 322.86 68.5514 323.436 67.8559C324.013 67.1605 324.728 66.5925 325.536 66.1882C326.344 65.7838 327.227 65.5518 328.13 65.507C329.032 65.4622 329.934 65.6055 330.778 65.9278C331.622 66.2501 332.39 66.7444 333.032 67.3793C333.675 68.0142 334.179 68.7758 334.512 69.6158C334.844 70.4557 334.999 71.3557 334.965 72.2586C334.935 78.1111 328.478 81.3545 328.421 86.3473C328.418 86.5091 328.352 86.6634 328.237 86.7769C328.121 86.8903 327.966 86.9539 327.804 86.9539Z" fill="#6700E8"/>
<path d="M329.471 93.5283C329.438 93.9534 329.241 94.349 328.922 94.6315C328.603 94.914 328.186 95.0612 327.76 95.042C327.334 95.0228 326.933 94.8387 326.64 94.5286C326.347 94.2185 326.187 93.8067 326.193 93.3804C326.225 92.9554 326.422 92.5598 326.741 92.2773C327.061 91.9948 327.477 91.8476 327.903 91.8668C328.329 91.886 328.731 92.0701 329.023 92.3802C329.316 92.6903 329.477 93.102 329.471 93.5283V93.5283Z" fill="#6700E8"/>
<path d="M307.196 317.172C307.071 317.172 306.951 317.122 306.863 317.034C306.775 316.945 306.725 316.825 306.725 316.7C306.725 316.575 306.775 316.456 306.863 316.367C306.951 316.279 307.071 316.229 307.196 316.229H317.46C317.585 316.229 317.705 316.279 317.793 316.367C317.882 316.456 317.931 316.575 317.931 316.7C317.931 316.825 317.882 316.945 317.793 317.034C317.705 317.122 317.585 317.172 317.46 317.172H307.196Z" fill="#6700E8"/>
<path d="M335.667 317.119C335.542 317.119 335.422 317.069 335.333 316.981C335.245 316.893 335.195 316.773 335.195 316.648C335.195 316.523 335.245 316.403 335.333 316.315C335.422 316.226 335.542 316.177 335.667 316.177H345.93C346.055 316.177 346.175 316.226 346.264 316.315C346.352 316.403 346.402 316.523 346.402 316.648C346.402 316.773 346.352 316.893 346.264 316.981C346.175 317.069 346.055 317.119 345.93 317.119H335.667Z" fill="#6700E8"/>
<path d="M326.064 307.569V297.305C326.063 297.244 326.074 297.183 326.096 297.126C326.119 297.069 326.153 297.017 326.196 296.973C326.239 296.929 326.29 296.894 326.346 296.87C326.403 296.846 326.464 296.834 326.525 296.834C326.649 296.839 326.767 296.889 326.856 296.976C326.945 297.063 326.999 297.179 327.007 297.303V307.567C327.007 307.629 326.995 307.69 326.971 307.747C326.948 307.805 326.913 307.857 326.869 307.9C326.781 307.989 326.662 308.039 326.537 308.039C326.475 308.04 326.413 308.027 326.356 308.004C326.299 307.98 326.247 307.946 326.203 307.902C326.114 307.814 326.064 307.694 326.064 307.569V307.569Z" fill="#6700E8"/>
<path d="M326.114 336.045V325.781C326.123 325.662 326.176 325.55 326.264 325.469C326.352 325.387 326.467 325.342 326.587 325.342C326.706 325.342 326.822 325.387 326.909 325.469C326.997 325.55 327.05 325.662 327.059 325.781V336.045C327.05 336.165 326.997 336.276 326.909 336.358C326.822 336.439 326.706 336.484 326.587 336.484C326.467 336.484 326.352 336.439 326.264 336.358C326.176 336.276 326.123 336.165 326.114 336.045V336.045Z" fill="#6700E8"/>
<path d="M320.112 310.718C319.826 310.718 320.362 311.176 312.507 303.336C312.419 303.248 312.369 303.128 312.369 303.003C312.369 302.878 312.419 302.758 312.507 302.669C312.596 302.581 312.716 302.531 312.841 302.531C312.966 302.531 313.086 302.581 313.174 302.669L320.443 309.913C320.508 309.979 320.553 310.062 320.572 310.154C320.59 310.245 320.581 310.339 320.545 310.426C320.51 310.512 320.45 310.585 320.373 310.637C320.296 310.689 320.205 310.717 320.112 310.718V310.718Z" fill="#6700E8"/>
<path d="M340.281 330.817C339.997 330.817 340.531 331.275 332.679 323.435C332.635 323.391 332.6 323.339 332.576 323.282C332.552 323.225 332.54 323.164 332.54 323.102C332.539 323.04 332.552 322.978 332.575 322.921C332.599 322.863 332.633 322.811 332.677 322.767C332.721 322.723 332.773 322.688 332.83 322.665C332.888 322.641 332.949 322.628 333.011 322.628C333.073 322.628 333.134 322.64 333.192 322.664C333.249 322.688 333.301 322.722 333.345 322.766L340.614 330.012C340.68 330.078 340.725 330.162 340.743 330.254C340.761 330.345 340.752 330.44 340.716 330.526C340.681 330.612 340.62 330.686 340.543 330.737C340.465 330.789 340.374 330.817 340.281 330.817Z" fill="#6700E8"/>
<path d="M332.988 310.695C332.894 310.695 332.803 310.667 332.726 310.616C332.648 310.564 332.588 310.49 332.552 310.404C332.516 310.318 332.507 310.223 332.525 310.132C332.543 310.04 332.588 309.956 332.654 309.89L339.898 302.622C339.986 302.533 340.106 302.483 340.231 302.482C340.356 302.482 340.476 302.531 340.565 302.619C340.653 302.707 340.704 302.827 340.704 302.952C340.704 303.077 340.655 303.197 340.567 303.286C332.707 311.189 333.263 310.695 332.988 310.695Z" fill="#6700E8"/>
<path d="M312.891 330.867C312.797 330.867 312.706 330.84 312.628 330.789C312.55 330.737 312.489 330.663 312.453 330.577C312.417 330.491 312.407 330.396 312.425 330.304C312.444 330.213 312.489 330.128 312.555 330.062L319.801 322.794C319.889 322.705 320.009 322.656 320.134 322.656C320.259 322.656 320.379 322.705 320.468 322.794C320.556 322.882 320.606 323.002 320.606 323.127C320.606 323.252 320.556 323.372 320.468 323.46C312.607 331.358 313.176 330.867 312.891 330.867Z" fill="#6700E8"/>
<path d="M52.8219 36.5291C52.1571 36.5291 51.5196 36.265 51.0496 35.795C50.5795 35.3249 50.3154 34.6874 50.3154 34.0226V2.50648C50.3154 1.84173 50.5795 1.20421 51.0496 0.734156C51.5196 0.264105 52.1571 3.05176e-05 52.8219 3.05176e-05C53.4866 3.05176e-05 54.1242 0.264105 54.5942 0.734156C55.0643 1.20421 55.3283 1.84173 55.3283 2.50648V34.0226C55.3283 34.6874 55.0643 35.3249 54.5942 35.795C54.1242 36.265 53.4866 36.5291 52.8219 36.5291Z" fill="white"/>
<path d="M52.8238 44.5021C51.8862 44.5016 50.9696 44.7792 50.1898 45.2997C49.4101 45.8202 48.8022 46.5602 48.4431 47.4263C48.0839 48.2923 47.9897 49.2454 48.1723 50.1649C48.3549 51.0845 48.8061 51.9293 49.4689 52.5924C50.1316 53.2555 50.9762 53.7072 51.8957 53.8903C52.8151 54.0733 53.7683 53.9796 54.6345 53.621C55.5007 53.2623 56.2411 52.6548 56.762 51.8753C57.2829 51.0958 57.561 50.1793 57.561 49.2418C57.5596 47.9856 57.0602 46.7812 56.1721 45.8927C55.2841 45.0042 54.08 44.5041 52.8238 44.5021V44.5021Z" fill="white"/>
<path d="M118.189 20.4026C118.744 19.7357 119.455 19.2163 120.259 18.8907C121.063 18.565 121.935 18.4431 122.798 18.5358C123.66 18.6286 124.486 18.933 125.203 19.4222C125.919 19.9113 126.504 20.57 126.904 21.3395C127.305 22.109 127.509 22.9656 127.498 23.8331C127.488 24.7005 127.263 25.5519 126.844 26.3115C126.425 27.0711 125.825 27.7154 125.096 28.187C124.368 28.6586 123.535 28.943 122.67 29.0147C121.634 29.1079 120.594 28.8911 119.681 28.3917C118.768 27.8924 118.025 27.133 117.544 26.2101C117.064 25.2872 116.869 24.2424 116.984 23.2083C117.098 22.1743 117.518 21.1977 118.189 20.4026V20.4026ZM117.918 24.1622C117.98 24.8689 118.215 25.5495 118.603 26.1435C118.991 26.7375 119.519 27.2266 120.141 27.5675C120.764 27.9083 121.46 28.0904 122.17 28.0975C122.879 28.1047 123.579 27.9366 124.208 27.6084C124.837 27.2801 125.375 26.8017 125.775 26.2156C126.174 25.6295 126.423 24.9539 126.499 24.2486C126.575 23.5433 126.476 22.8301 126.21 22.1723C125.945 21.5145 125.521 20.9325 124.976 20.4777C124.323 19.9311 123.523 19.5902 122.677 19.4981C121.83 19.406 120.975 19.5669 120.22 19.9603C119.465 20.3537 118.843 20.9621 118.433 21.7086C118.024 22.4552 117.844 23.3064 117.918 24.1547V24.1622Z" fill="#6700E8"/>
<path d="M87.8813 388.676V369.449C87.8813 369.324 87.931 369.204 88.0194 369.115C88.1077 369.027 88.2276 368.978 88.3526 368.978C88.4775 368.978 88.5974 369.027 88.6858 369.115C88.7741 369.204 88.8238 369.324 88.8238 369.449V388.678C88.8234 388.803 88.7735 388.923 88.6849 389.011C88.5963 389.099 88.4763 389.149 88.3513 389.148C88.2263 389.148 88.1066 389.098 88.0185 389.009C87.9303 388.921 87.881 388.801 87.8813 388.676Z" fill="#6700E8"/>
<path d="M97.9576 379.532H78.728C78.6031 379.532 78.4832 379.483 78.3949 379.394C78.3065 379.306 78.2568 379.186 78.2568 379.061C78.2568 378.936 78.3065 378.816 78.3949 378.728C78.4832 378.639 78.6031 378.59 78.728 378.59H97.9576C98.0825 378.59 98.2024 378.639 98.2908 378.728C98.3791 378.816 98.4288 378.936 98.4288 379.061C98.4288 379.186 98.3791 379.306 98.2908 379.394C98.2024 379.483 98.0825 379.532 97.9576 379.532V379.532Z" fill="#6700E8"/>
<path d="M96.7643 159.734C96.1445 159.736 95.5391 159.921 95.0246 160.267C94.5101 160.612 94.1095 161.103 93.8732 161.676C93.6369 162.249 93.5756 162.879 93.697 163.487C93.8184 164.094 94.1171 164.653 94.5554 165.091C94.9936 165.529 95.5518 165.828 96.1596 165.949C96.7674 166.071 97.3976 166.009 97.9706 165.773C98.5436 165.537 99.0337 165.136 99.3793 164.622C99.7249 164.107 99.9104 163.502 99.9124 162.882C99.9134 162.468 99.8326 162.058 99.6748 161.676C99.5169 161.294 99.2851 160.946 98.9925 160.654C98.7 160.361 98.3526 160.129 97.9702 159.971C97.5878 159.814 97.178 159.733 96.7643 159.734V159.734Z" fill="#000001"/>
<path d="M121.869 193.135C123.602 193.135 125.007 191.73 125.007 189.997C125.007 188.264 123.602 186.859 121.869 186.859C120.136 186.859 118.731 188.264 118.731 189.997C118.731 191.73 120.136 193.135 121.869 193.135Z" fill="#000001"/>
<path d="M151.172 164.052C150.551 164.051 149.944 164.234 149.426 164.578C148.909 164.921 148.506 165.411 148.267 165.984C148.029 166.558 147.966 167.189 148.086 167.798C148.206 168.407 148.504 168.967 148.943 169.407C149.381 169.846 149.941 170.146 150.549 170.268C151.158 170.389 151.79 170.328 152.364 170.09C152.937 169.853 153.428 169.451 153.773 168.935C154.118 168.418 154.303 167.811 154.303 167.19C154.303 166.359 153.973 165.562 153.386 164.974C152.799 164.386 152.003 164.054 151.172 164.052V164.052Z" fill="#000001"/>
<path d="M183.395 197.118C185.128 197.118 186.533 195.713 186.533 193.979C186.533 192.246 185.128 190.841 183.395 190.841C181.662 190.841 180.257 192.246 180.257 193.979C180.257 195.713 181.662 197.118 183.395 197.118Z" fill="#000001"/>
<path d="M210.798 170.329C211.419 170.329 212.026 170.144 212.542 169.8C213.058 169.455 213.46 168.965 213.697 168.391C213.935 167.818 213.997 167.187 213.876 166.578C213.755 165.97 213.456 165.41 213.017 164.971C212.578 164.533 212.019 164.234 211.41 164.113C210.802 163.992 210.171 164.054 209.597 164.291C209.024 164.529 208.534 164.931 208.189 165.447C207.844 165.963 207.66 166.57 207.66 167.19C207.661 168.023 207.992 168.82 208.58 169.409C209.168 169.997 209.966 170.328 210.798 170.329Z" fill="#000001"/>
<path d="M245.008 172.103C245.629 172.103 246.236 171.919 246.752 171.574C247.268 171.229 247.67 170.739 247.907 170.166C248.145 169.593 248.207 168.962 248.086 168.353C247.965 167.744 247.666 167.185 247.227 166.746C246.788 166.307 246.229 166.008 245.62 165.887C245.012 165.766 244.381 165.828 243.807 166.066C243.234 166.303 242.744 166.706 242.399 167.222C242.054 167.738 241.87 168.344 241.87 168.965C241.87 169.797 242.201 170.596 242.789 171.184C243.378 171.773 244.176 172.103 245.008 172.103Z" fill="#000001"/>
<path d="M282.868 167.19C283.489 167.19 284.095 167.006 284.611 166.662C285.128 166.317 285.53 165.827 285.767 165.253C286.005 164.68 286.067 164.049 285.946 163.44C285.825 162.831 285.526 162.272 285.087 161.833C284.648 161.395 284.089 161.096 283.48 160.975C282.872 160.854 282.241 160.916 281.667 161.153C281.094 161.391 280.604 161.793 280.259 162.309C279.914 162.825 279.73 163.432 279.73 164.052C279.73 164.464 279.811 164.873 279.969 165.253C280.127 165.634 280.358 165.98 280.649 166.271C280.94 166.563 281.286 166.794 281.667 166.952C282.048 167.109 282.456 167.19 282.868 167.19V167.19Z" fill="#000001"/>
<path d="M266.112 200.957C267.845 200.957 269.25 199.552 269.25 197.819C269.25 196.086 267.845 194.681 266.112 194.681C264.379 194.681 262.974 196.086 262.974 197.819C262.974 199.552 264.379 200.957 266.112 200.957Z" fill="#000001"/>
<path d="M378.52 442.249H312.221C313.971 441.644 315.582 440.695 316.96 439.458C318.337 438.221 319.453 436.72 320.242 435.045C323.197 428.553 325.806 415.224 328.563 407.592C329.484 405.206 329.488 402.563 328.575 400.174C327.662 397.785 325.896 395.819 323.618 394.656L314.846 389.941C313.625 388.46 294.12 364.784 285.711 353.259C279.395 345.081 272.185 337.633 264.215 331.055C264.313 330.904 264.797 330.147 264.874 329.985C265.005 329.596 265.521 330.686 255.067 313.417L248.856 250.074C248.098 241.376 245.485 232.941 241.193 225.338C236.567 216.68 228.992 209.967 219.841 206.414C219.066 198.783 219.559 191.076 221.3 183.605C226.516 187.445 245.522 201.652 251.678 206.123C255.813 209.113 260.929 210.42 265.991 209.781C271.054 209.142 275.684 206.603 278.946 202.679C290.764 188.428 303.1 174.71 312.873 164.945C313.481 164.429 313.947 163.766 314.227 163.02C326.423 163.957 329.751 166.529 338.163 168.754C338.43 168.844 338.72 168.836 338.981 168.73C339.242 168.625 339.457 168.43 339.587 168.181C340.316 166.501 336.426 164.07 334.91 163.122C338.624 163.581 343.367 164.524 347.066 164.864C347.345 164.91 347.631 164.854 347.873 164.707C348.114 164.56 348.295 164.331 348.382 164.062C348.803 162.376 345.006 160.704 343.171 159.942C341.667 159.32 339.502 158.423 337.657 157.716C339.797 157.701 342.088 157.791 343.81 157.902C345.788 158.029 351.728 158.373 352.109 156.44C352.204 155.969 352.485 154.538 345.174 152.069C341.983 150.984 327.583 148.868 319.254 147.703C318.605 147.5 318.234 147.214 318.159 146.853C317.723 144.823 324.29 140.161 325.771 138.394C327.566 136.258 328.779 134.677 328.115 133.789C327.315 132.729 324.495 133.699 318.791 136.341C313.48 138.797 308.229 140.938 301.246 143.454C297.907 141.833 293.155 140.785 290.623 143.474C280.245 152.482 270.932 162.646 262.864 173.77C259.741 171.178 238.198 153.423 223.215 144.312C219.77 141.971 215.694 140.736 211.53 140.77C208.883 141.077 206.287 141.726 203.807 142.7C202.694 142.895 201.998 142.449 201.446 140.417C202.328 140.741 203.266 140.885 204.205 140.839C205.143 140.793 206.063 140.559 206.909 140.15C207.755 139.742 208.51 139.167 209.13 138.461C209.749 137.754 210.22 136.93 210.514 136.038C211.403 137.169 212.618 138 213.995 138.417C215.371 138.835 216.843 138.82 218.211 138.374C219.578 137.927 220.776 137.071 221.641 135.922C222.506 134.772 222.996 133.385 223.047 131.947C224.272 132.604 225.665 132.882 227.048 132.746C228.431 132.61 229.743 132.066 230.817 131.183C231.891 130.301 232.679 129.119 233.08 127.789C233.482 126.458 233.479 125.038 233.073 123.709C234.462 123.904 235.879 123.679 237.139 123.061C238.399 122.444 239.445 121.463 240.142 120.245C240.839 119.027 241.155 117.627 241.049 116.228C240.943 114.829 240.419 113.493 239.547 112.394C240.993 112.14 242.323 111.438 243.349 110.388C244.375 109.338 245.046 107.992 245.267 106.541C245.489 105.089 245.249 103.605 244.583 102.297C243.916 100.988 242.856 99.9222 241.552 99.2481C242.875 98.6015 243.961 97.554 244.655 96.2545C245.349 94.955 245.615 93.4699 245.415 92.0104C245.216 90.551 244.561 89.1916 243.545 88.1258C242.528 87.0599 241.201 86.342 239.752 86.0741C240.651 84.9918 241.203 83.6644 241.338 82.2642C241.473 80.864 241.184 79.4556 240.508 78.2217C239.833 76.9878 238.802 75.9854 237.55 75.3444C236.298 74.7034 234.882 74.4536 233.486 74.6272C233.919 73.3044 233.949 71.8827 233.571 70.543C233.194 69.2033 232.427 68.006 231.368 67.1033C230.308 66.2006 229.005 65.6332 227.622 65.4734C226.239 65.3135 224.841 65.5683 223.603 66.2055C223.573 64.7716 223.104 63.3814 222.26 62.222C221.415 61.0627 220.236 60.1898 218.881 59.721C217.525 59.2522 216.059 59.2099 214.679 59.5998C213.298 59.9897 212.071 60.7931 211.161 61.9019C210.662 60.4756 209.734 59.2389 208.503 58.3618C207.273 57.4847 205.801 57.0103 204.29 57.0037C202.779 56.9971 201.303 57.4587 200.065 58.325C198.826 59.1914 197.887 60.4199 197.376 61.8418C196.478 60.7204 195.259 59.9013 193.881 59.495C192.504 59.0887 191.035 59.1148 189.673 59.5698C188.31 60.0248 187.121 60.8867 186.264 62.0393C185.407 63.1918 184.924 64.5795 184.881 66.015C183.651 65.3661 182.257 65.0969 180.874 65.2417C179.492 65.3865 178.183 65.9387 177.115 66.8283C176.046 67.7179 175.266 68.9047 174.873 70.2383C174.48 71.5719 174.492 72.9921 174.908 74.3189C173.516 74.132 172.101 74.3669 170.844 74.9931C169.587 75.6193 168.547 76.6081 167.858 77.8316C167.17 79.0551 166.864 80.4571 166.98 81.8563C167.096 83.2556 167.63 84.5877 168.511 85.6806C166.878 85.9801 165.402 86.846 164.344 88.126C163.286 89.406 162.713 91.018 162.726 92.6786C162.742 93.9598 163.109 95.2121 163.788 96.2987C164.467 97.3852 165.432 98.2642 166.576 98.8395C165.26 99.4955 164.183 100.55 163.499 101.852C162.815 103.154 162.559 104.639 162.767 106.095C162.974 107.552 163.635 108.906 164.655 109.965C165.676 111.025 167.004 111.736 168.451 111.998C167.565 113.087 167.025 114.416 166.902 115.814C166.779 117.212 167.078 118.616 167.761 119.842C168.443 121.069 169.478 122.062 170.731 122.695C171.984 123.327 173.398 123.57 174.79 123.39C174.443 124.463 174.36 125.604 174.55 126.716C174.739 127.828 175.195 128.877 175.878 129.775C176.56 130.672 177.45 131.391 178.471 131.87C179.492 132.349 180.614 132.575 181.74 132.526C184.089 134.015 186.903 134.587 189.646 134.133C189.769 137.727 189.282 143.607 185.798 142.79C175.349 140.334 170.672 141.988 164.729 146.623C153.41 154.723 141.655 162.196 129.516 169.008C115.44 160.516 105.336 156.964 92.2124 151.305C92.1218 151.266 92.0215 151.257 91.9254 151.278C91.8293 151.299 91.7421 151.349 91.676 151.422C90.5489 152.666 89.4913 153.97 88.5079 155.33C87.1569 154.924 85.7459 154.754 84.3371 154.829C75.005 154.14 65.7248 152.87 56.5506 151.026C50.485 149.901 48.9987 150.237 48.6277 151.092C48.1866 152.112 49.7431 153.347 51.9914 155.009C53.796 156.335 61.4632 159.338 61.5309 161.391C61.5309 161.759 61.2402 162.127 60.6411 162.481C48.8458 167.04 37.9853 171.868 36.3736 172.888C29.8569 177.016 30.4709 178.339 30.6715 178.775C30.9221 179.302 31.5863 179.565 32.6766 179.565C35.6844 179.565 39.028 178.026 44.9783 176.637C42.8177 178.129 40.3313 179.943 39.9654 180.214C36.8724 182.47 35.5315 184.237 36.0904 185.302C36.2387 185.542 36.468 185.722 36.7369 185.808C37.0058 185.893 37.2966 185.88 37.5567 185.771C40.6822 184.688 45.4746 182.537 48.9385 181.222C47.6853 182.497 44.5071 185.761 45.6074 187.217C45.793 187.43 46.0486 187.57 46.3281 187.611C46.6076 187.651 46.8925 187.591 47.1313 187.44C55.1746 183.071 58.4831 179.046 72.5693 175.158C73.394 175.158 74.2913 175.234 80.4596 175.958C80.2925 177.188 80.1714 178.441 80.0962 179.718C80.0812 179.968 80.1789 180.104 80.7479 180.372C90.0951 184.273 99.2394 188.643 108.146 193.466C112.071 195.503 116.126 197.614 121.014 200.012C124.37 201.672 128.091 202.457 131.831 202.295C135.571 202.132 139.21 201.027 142.409 199.083C150.743 194.035 159.674 188.688 169.228 183.638C171.237 192.171 174.152 200.466 177.926 208.379C154.954 317.979 151.224 335.313 150.793 338.095C150.693 338.76 150.793 338.597 150.838 338.657C151.041 338.83 152.688 339.702 152.924 339.825L137.614 419.006C124.977 422.766 110.043 433.827 101 442.249H0.471212C0.346239 442.249 0.226383 442.298 0.138013 442.387C0.0496438 442.475 0 442.595 0 442.72C0 442.845 0.0496438 442.965 0.138013 443.053C0.226383 443.141 0.346239 443.191 0.471212 443.191C333.855 443.191 374.128 443.376 378.572 442.995C379.329 442.93 378.933 442.249 378.52 442.249ZM284.936 353.816C293.18 365.112 312.048 388.047 314.011 390.41C310.469 401.827 306.093 405.171 296.02 411.803L239.492 350.833C249.287 347.086 257.723 340.466 263.691 331.842C271.568 338.354 278.693 345.724 284.936 353.816V353.816ZM338.71 167.807C338.692 167.845 338.562 167.89 338.394 167.845C330.298 165.707 327.303 163.333 315.755 162.21C321.428 162.148 327.099 162.381 332.747 162.909L334.832 164.195C338.933 166.752 338.71 167.807 338.71 167.807V167.807ZM343.038 160.914C347.5 162.769 347.455 163.837 347.455 163.837C347.455 163.879 347.322 163.945 347.141 163.927C345.023 163.734 342.562 163.338 340.181 162.96C336.808 162.336 333.398 161.939 329.972 161.772C325.005 161.315 320.015 161.156 315.029 161.295C321.512 159.178 328.263 157.996 335.08 157.786C337.023 158.42 341.153 160.132 343.038 160.914ZM344.858 152.964C351.207 155.109 351.169 156.26 351.169 156.26C351.109 156.561 349.64 157.338 343.858 156.962C337.409 156.532 330.933 156.853 324.558 157.919C317.545 159.405 310.67 161.479 304.005 164.12L302.394 163.368C297.222 160.637 293.157 156.196 290.894 150.803L290.337 148.49C291.592 147.634 293.015 147.055 294.511 146.79C301.02 145.622 340.143 151.357 344.858 152.966V152.964ZM320.776 136.461C326.365 133.917 327.24 134.276 327.34 134.348C327.501 134.85 325.643 137.063 325.034 137.79C323.31 139.848 315.963 144.657 317.362 147.452C311.429 146.683 303.419 145.901 297.666 145.698C305.534 143.047 313.249 139.964 320.776 136.461V136.461ZM185.583 143.71C188.591 144.417 189.894 141.61 190.365 138.547C190.438 138.444 194.185 133.135 194.245 133.033C194.284 132.951 194.299 132.859 194.287 132.769C194.275 132.679 194.238 132.595 194.179 132.526C194.12 132.457 194.042 132.406 193.955 132.381C193.868 132.355 193.776 132.355 193.689 132.381C193.608 132.406 186.079 134.8 182.214 131.704C177.773 128.15 180.625 119.826 182.783 114.555C184.452 110.484 188.019 103.188 192.293 104.098C195.995 104.883 198.386 111.352 198.341 115.628C198.341 115.671 198.347 115.714 198.358 115.756C198.396 116.044 198.514 116.929 199.223 117.204C200.145 117.563 201.426 116.56 202.188 115.923C206.121 112.62 209.319 119.615 201.501 123.693C199.484 124.751 198.581 127.335 199.927 137.414C201.236 147.086 203.938 142.953 209.702 141.925C202.21 151.56 196.186 162.25 191.826 173.65C186.38 164.183 181.111 146.382 180.066 142.745C181.924 142.95 183.766 143.272 185.583 143.71V143.71ZM52.5578 154.237C51.8059 153.676 49.4674 151.969 49.4974 151.462C50.109 150.675 57.0644 152.072 57.7687 152.214C65.4387 153.736 73.1884 154.824 80.981 155.473C75.542 157.004 68.9149 159.33 62.4332 161.797C63.1827 158.731 54.7635 155.871 52.5578 154.25V154.237ZM59.3252 179.066C55.1445 181.186 46.6676 187.032 46.3568 186.636C46.3568 186.636 45.8932 185.666 49.2719 182.214C49.6127 181.863 50.2418 181.227 50.9913 180.477C56.3527 178.637 61.8057 177.075 67.3283 175.798C64.5964 176.717 61.9272 177.813 59.3378 179.079L59.3252 179.066ZM43.5722 182.362C41.3439 183.287 39.0405 184.244 37.2459 184.868C37.0805 184.926 36.9426 184.891 36.9226 184.853C36.9226 184.853 36.6218 183.818 40.5193 180.966C41.0206 180.602 45.3292 177.457 47.5073 176.071C54.2116 174.609 61.0963 174.153 67.9349 174.717C59.6037 176.53 51.4537 179.092 43.5847 182.375L43.5722 182.362ZM57.7687 173.687C51.3311 174.188 44.97 175.409 38.8049 177.329C33.2757 179.064 31.664 178.657 31.5362 178.379C31.5362 178.379 31.2279 177.271 36.8875 173.685C51.5032 166.724 66.6162 160.859 82.1014 156.14C84.012 155.622 86.0258 155.622 87.9364 156.14C84.0819 161.791 81.5763 168.251 80.6125 175.023C73.055 173.919 65.4157 173.476 57.7813 173.7L57.7687 173.687ZM167.05 163.02C167.046 162.895 166.993 162.776 166.902 162.691C166.811 162.605 166.69 162.559 166.565 162.562C166.44 162.566 166.322 162.619 166.236 162.71C166.15 162.801 166.104 162.922 166.108 163.047C166.492 169.66 167.463 176.225 169.01 182.665C159.353 187.761 150.34 193.16 141.928 198.253C138.864 200.116 135.378 201.174 131.796 201.33C128.213 201.486 124.649 200.733 121.435 199.143C106.514 191.821 99.8044 187.458 81.0662 179.422C81.5146 169.374 85.4283 159.791 92.1422 152.302C105.71 158.132 115.349 161.538 129.258 169.955C129.33 169.998 129.412 170.02 129.496 170.02C129.58 170.02 129.662 169.998 129.734 169.955C129.972 169.822 153.728 156.388 165.301 147.364C167.139 145.665 169.312 144.367 171.681 143.554C174.049 142.741 176.561 142.43 179.056 142.642C179.841 145.399 185.628 165.308 191.508 174.955C191.554 175.031 191.62 175.091 191.699 175.131C191.777 175.17 191.866 175.187 191.953 175.179C192.041 175.171 192.125 175.138 192.195 175.085C192.265 175.032 192.319 174.96 192.35 174.878C196.825 162.928 203.13 151.746 211.038 141.732C215.201 141.554 219.307 142.744 222.728 145.121C238.77 154.879 262.408 174.617 262.644 174.815C262.729 174.885 262.836 174.924 262.947 174.925H263C263.063 174.918 263.125 174.898 263.18 174.866C263.236 174.834 263.284 174.791 263.323 174.74C270.986 164.179 279.742 154.456 289.445 145.733C289.177 147.534 289.364 149.373 289.989 151.084C292.332 156.719 296.566 161.36 301.962 164.21C304.535 165.671 307.49 166.315 310.437 166.058C300.95 175.692 289.35 188.653 278.211 202.083C275.103 205.822 270.69 208.241 265.865 208.851C261.041 209.46 256.165 208.215 252.224 205.366C246.076 200.892 226.889 186.568 221.528 182.613C222.171 179.84 223.02 177.119 224.067 174.472C224.116 174.357 224.118 174.227 224.071 174.111C224.024 173.995 223.934 173.902 223.819 173.853C223.704 173.803 223.574 173.802 223.458 173.848C223.342 173.895 223.249 173.986 223.2 174.101C219.295 184.404 217.819 195.468 218.886 206.434C203.597 211.068 192.295 211.485 178.76 207.913C172.069 193.822 168.097 178.596 167.053 163.032L167.05 163.02ZM151.701 338.068L178.783 208.878C192.917 212.557 204.815 211.698 219.387 207.249C228.392 210.688 235.843 217.279 240.356 225.796C244.583 233.286 247.155 241.594 247.898 250.162L254.122 313.61C254.147 313.861 253.999 313.5 263.872 329.802C261.292 333.961 258.078 337.692 254.347 340.86L242.259 326.45C242.178 326.354 242.063 326.294 241.938 326.283C241.813 326.272 241.689 326.311 241.593 326.392C241.497 326.472 241.437 326.587 241.426 326.712C241.415 326.837 241.454 326.961 241.534 327.057L253.625 341.462C248.481 345.577 242.68 348.797 236.466 350.986L225.796 340.838C221.12 336.393 217.776 330.732 216.141 324.49L194.26 241.026C194.229 240.905 194.15 240.801 194.042 240.738C193.934 240.675 193.806 240.657 193.685 240.688C193.564 240.72 193.46 240.798 193.397 240.906C193.334 241.014 193.316 241.143 193.348 241.264L205.128 286.214C186.365 343.066 189.786 332.082 186.58 344.236C182.362 344.923 178.079 345.126 173.815 344.84L178.863 326.588C178.89 326.47 178.87 326.347 178.807 326.243C178.745 326.139 178.645 326.063 178.529 326.031C178.412 325.999 178.287 326.012 178.181 326.07C178.074 326.127 177.993 326.223 177.956 326.338L172.858 344.768C165.409 344.077 158.195 341.797 151.703 338.08L151.701 338.068ZM153.803 340.259C163.391 345.116 174.236 346.925 184.881 345.442C184.911 358.726 174.605 384.776 168.672 419.004C158.834 421.744 148.436 421.753 138.594 419.029L153.803 340.259ZM169.411 442.236C170.651 441.649 171.678 440.692 172.352 439.496C173.025 438.301 173.311 436.926 173.171 435.561C172.607 430.026 171.398 424.576 169.569 419.322C175.402 385.533 185.911 358.621 185.818 345.304C185.899 345.304 187.072 345.124 187.139 345.096C187.533 344.953 187.342 345.129 189.914 335.394L205.594 287.889L215.252 324.721C216.932 331.132 220.366 336.948 225.17 341.514C236.466 352.257 236.088 352.071 236.464 351.984C236.714 351.929 238.218 351.332 238.554 351.204L295.571 412.703C300.749 420.473 299.712 424.383 299.093 426.714C293.481 431.94 290.48 432.082 286.513 442.236H169.411Z" fill="#000001"/>
<path d="M233.278 235.404C233.403 235.404 233.523 235.354 233.611 235.266C233.7 235.177 233.749 235.057 233.749 234.932C233.749 234.807 233.7 234.688 233.611 234.599C233.523 234.511 233.403 234.461 233.278 234.461C233.206 234.461 233.15 234.461 233.085 234.461C224.709 234.461 217.545 230.702 211.164 223.014C211.084 222.918 210.969 222.857 210.845 222.845C210.72 222.834 210.596 222.872 210.5 222.952C210.403 223.031 210.342 223.146 210.331 223.271C210.319 223.395 210.357 223.519 210.437 223.616C216.43 230.862 223.949 235.582 233.278 235.404Z" fill="#000001"/>
</svg>
