<svg width="442" height="397" viewBox="0 0 442 397" fill="none" xmlns="http://www.w3.org/2000/svg">
<path d="M229.911 70.7718C229.658 65.9907 230.408 61.2095 232.114 56.7358C233.82 52.2621 236.443 48.1951 239.815 44.7963C239.911 44.7007 240.04 44.647 240.176 44.647C240.311 44.647 240.44 44.7007 240.536 44.7963C240.632 44.8918 240.685 45.0215 240.685 45.1567C240.685 45.2918 240.632 45.4215 240.536 45.5171C237.255 48.8206 234.703 52.7744 233.043 57.1241C231.383 61.4737 230.653 66.1227 230.899 70.7718C230.916 70.8463 230.916 70.9237 230.9 70.9982C230.883 71.0728 230.85 71.1427 230.802 71.2026C230.755 71.2625 230.694 71.3109 230.625 71.3441C230.557 71.3774 230.481 71.3947 230.405 71.3947C230.328 71.3947 230.253 71.3774 230.184 71.3441C230.115 71.3109 230.055 71.2625 230.007 71.2026C229.96 71.1427 229.926 71.0728 229.91 70.9982C229.893 70.9237 229.893 70.8463 229.911 70.7718Z" fill="black"/>
<path d="M84.8426 312.508C84.8167 312.377 84.7407 312.262 84.6308 312.187C84.521 312.112 84.3861 312.084 84.2553 312.107L77.2341 313.335C75.6132 313.615 73.9477 313.241 72.6019 312.295C71.256 311.349 70.3395 309.909 70.0528 308.29L68.8248 301.269C68.8 301.134 68.7228 301.015 68.6102 300.937C68.4975 300.86 68.3586 300.83 68.2241 300.855C68.0896 300.88 67.9704 300.957 67.8928 301.069C67.8152 301.182 67.7855 301.321 67.8103 301.455L69.065 308.477C69.207 309.28 69.1889 310.103 69.012 310.899C68.835 311.695 68.5026 312.448 68.0338 313.115C67.565 313.782 66.9691 314.35 66.2802 314.787C65.5913 315.223 64.823 315.519 64.0194 315.658L56.9983 316.913C56.8818 316.951 56.7834 317.031 56.7213 317.137C56.6591 317.243 56.6374 317.368 56.6602 317.488C56.683 317.609 56.7488 317.717 56.8453 317.793C56.9418 317.869 57.0626 317.907 57.1852 317.9L64.2063 316.646C65.8272 316.366 67.4928 316.74 68.8386 317.686C70.1844 318.632 71.1009 320.072 71.3876 321.691L72.6157 328.712C72.6404 328.847 72.7177 328.966 72.8303 329.044C72.9429 329.121 73.0818 329.151 73.2163 329.126C73.3509 329.101 73.47 329.024 73.5476 328.912C73.6252 328.799 73.6549 328.66 73.6301 328.526L72.3754 321.504C72.0961 319.883 72.4701 318.218 73.4157 316.872C74.3613 315.526 75.8014 314.61 77.421 314.323L84.4422 313.095C84.5726 313.069 84.6876 312.993 84.7625 312.883C84.8374 312.773 84.8661 312.639 84.8426 312.508ZM71.4944 318.995C70.9662 318.16 70.2759 317.439 69.4643 316.875C68.6527 316.311 67.7363 315.915 66.7692 315.711C67.6096 315.192 68.3362 314.508 68.9052 313.701C69.4741 312.893 69.8736 311.979 70.0795 311.013C70.5989 311.85 71.2833 312.573 72.0911 313.138C72.8988 313.702 73.8131 314.097 74.7781 314.296C73.9243 314.803 73.1863 315.483 72.6115 316.292C72.0367 317.101 71.638 318.022 71.441 318.995H71.4944Z" fill="#6700E8"/>
<path d="M180.896 7.8753L175.957 8.75627C174.85 8.94298 173.714 8.68633 172.795 8.04183C171.876 7.39734 171.247 6.41683 171.045 5.31244L170.164 0.346915C170.125 0.230471 170.046 0.132045 169.94 0.0698789C169.834 0.00771273 169.709 -0.0139737 169.589 0.00884191C169.468 0.0316575 169.36 0.0974249 169.284 0.193954C169.208 0.290483 169.17 0.411222 169.176 0.533789L170.057 5.47262C170.251 6.5806 169.998 7.72025 169.352 8.64128C168.706 9.5623 167.721 10.1894 166.614 10.3848L161.675 11.2657C161.601 11.2654 161.528 11.2811 161.461 11.3118C161.394 11.3425 161.335 11.3874 161.287 11.4434C161.239 11.4994 161.204 11.5652 161.184 11.6361C161.164 11.707 161.16 11.7814 161.172 11.8542C161.184 11.9269 161.211 11.9961 161.252 12.0572C161.294 12.1182 161.348 12.1695 161.411 12.2075C161.474 12.2455 161.545 12.2693 161.618 12.2772C161.691 12.2852 161.765 12.2771 161.835 12.2535L166.8 11.3725C167.361 11.2573 167.939 11.2574 168.5 11.3728C169.06 11.4882 169.591 11.7164 170.061 12.0435C170.53 12.3707 170.928 12.79 171.231 13.2758C171.533 13.7617 171.733 14.304 171.819 14.8697L172.7 19.8353C172.739 19.9517 172.819 20.0501 172.925 20.1123C173.03 20.1745 173.155 20.1962 173.276 20.1733C173.396 20.1505 173.505 20.0848 173.58 19.9882C173.656 19.8917 173.694 19.771 173.688 19.6484L172.834 14.6829C172.734 14.1374 172.744 13.5775 172.862 13.0357C172.98 12.494 173.204 11.981 173.522 11.5266C173.84 11.0722 174.245 10.6854 174.713 10.3886C175.182 10.0917 175.704 9.89081 176.251 9.79743L181.216 8.91645C181.355 8.87397 181.47 8.77838 181.538 8.65072C181.605 8.52305 181.619 8.37376 181.577 8.23569C181.534 8.09763 181.439 7.98209 181.311 7.91451C181.183 7.84692 181.034 7.83282 180.896 7.8753ZM171.819 12.5205C171.116 11.5372 170.099 10.8219 168.936 10.4915C169.919 9.78792 170.635 8.7714 170.965 7.60833C171.669 8.59158 172.685 9.30691 173.848 9.63726C172.865 10.3409 172.15 11.3574 171.819 12.5205Z" fill="#6700E8"/>
<path d="M441.453 157.856L429.172 160.018C427.722 160.288 426.234 160.269 424.791 159.963C423.348 159.657 421.98 159.069 420.765 158.234C419.55 157.398 418.512 156.331 417.71 155.093C416.908 153.855 416.358 152.472 416.091 151.021L413.929 138.741C413.925 138.669 413.906 138.598 413.872 138.534C413.839 138.47 413.792 138.413 413.735 138.369C413.679 138.324 413.613 138.292 413.542 138.275C413.472 138.258 413.399 138.256 413.328 138.269C413.257 138.283 413.189 138.311 413.13 138.353C413.071 138.394 413.021 138.448 412.985 138.511C412.948 138.573 412.925 138.642 412.918 138.714C412.91 138.786 412.918 138.859 412.941 138.928L415.103 151.181C415.616 154.119 414.942 157.14 413.231 159.582C411.519 162.024 408.909 163.688 405.973 164.209L393.72 166.372C393.608 166.398 393.509 166.461 393.438 166.55C393.367 166.64 393.328 166.751 393.328 166.866C393.328 166.98 393.367 167.091 393.438 167.181C393.509 167.27 393.608 167.333 393.72 167.359C394.013 167.359 396.549 166.879 406.08 165.197C409.011 164.685 412.025 165.355 414.462 167.062C416.899 168.768 418.56 171.371 419.081 174.301L421.243 186.581C421.282 186.697 421.362 186.796 421.468 186.858C421.574 186.92 421.698 186.942 421.819 186.919C421.94 186.896 422.048 186.83 422.124 186.734C422.199 186.637 422.238 186.517 422.231 186.394L420.069 174.114C419.557 171.179 420.231 168.161 421.943 165.723C423.655 163.286 426.265 161.627 429.199 161.112L441.453 158.95C441.598 158.95 441.737 158.892 441.84 158.79C441.942 158.687 442 158.548 442 158.403C442 158.258 441.942 158.118 441.84 158.016C441.737 157.913 441.598 157.856 441.453 157.856ZM419.134 170.67C418.206 168.828 416.829 167.249 415.131 166.078C413.433 164.908 411.468 164.182 409.417 163.969C411.234 163.057 412.797 161.71 413.967 160.047C415.136 158.384 415.875 156.457 416.118 154.438C417.025 156.261 418.376 157.828 420.046 158.994C421.715 160.16 423.651 160.888 425.675 161.112C423.871 162.038 422.323 163.395 421.168 165.062C420.013 166.729 419.287 168.655 419.054 170.67H419.134Z" fill="#6700E8"/>
<path d="M352.02 285.037L257.889 323.693C257.781 323.753 257.698 323.85 257.657 323.967C257.616 324.083 257.618 324.21 257.664 324.325C257.71 324.44 257.796 324.534 257.906 324.589C258.016 324.645 258.143 324.659 258.262 324.628L345.56 288.774L235.651 352.499C235.593 352.532 235.542 352.576 235.501 352.629C235.461 352.682 235.431 352.742 235.413 352.807C235.396 352.871 235.392 352.939 235.4 353.005C235.409 353.071 235.43 353.135 235.464 353.193C235.497 353.25 235.541 353.301 235.594 353.342C235.647 353.383 235.708 353.412 235.772 353.43C235.836 353.447 235.904 353.452 235.97 353.443C236.036 353.434 236.1 353.413 236.158 353.38L346.04 289.655L210.182 395.293C210.09 395.352 210.022 395.44 209.987 395.543C209.952 395.647 209.953 395.759 209.99 395.861C210.028 395.964 210.099 396.051 210.192 396.107C210.285 396.164 210.394 396.188 210.503 396.174C210.77 396.174 203.375 401.86 352.501 285.918C352.981 285.357 352.447 284.877 352.02 285.037Z" fill="#6700E8"/>
<path d="M352.18 297.851C349.854 297.848 347.576 297.184 345.613 295.936C343.649 294.689 342.081 292.909 341.089 290.805C340.098 288.7 339.725 286.357 340.013 284.049C340.301 281.741 341.239 279.562 342.718 277.766C344.197 275.97 346.155 274.631 348.365 273.904C350.575 273.178 352.946 273.095 355.202 273.664C357.457 274.232 359.505 275.43 361.106 277.118C362.708 278.805 363.797 280.913 364.247 283.195C364.598 284.976 364.55 286.814 364.106 288.574C363.662 290.335 362.833 291.975 361.679 293.377C360.525 294.778 359.075 295.907 357.432 296.68C355.789 297.454 353.996 297.854 352.18 297.851ZM352.18 274.279C349.859 274.278 347.594 274.994 345.696 276.329C343.797 277.664 342.357 279.553 341.573 281.738C340.788 283.922 340.698 286.296 341.314 288.534C341.93 290.771 343.222 292.765 345.013 294.24C346.805 295.716 349.009 296.602 351.323 296.778C353.638 296.954 355.95 296.41 357.944 295.222C359.937 294.034 361.516 292.258 362.462 290.139C363.409 288.02 363.678 285.66 363.232 283.382C362.738 280.816 361.369 278.5 359.358 276.83C357.348 275.16 354.82 274.24 352.207 274.225L352.18 274.279Z" fill="#6700E8"/>
<path d="M331.037 174.114C331.037 174.687 330.809 175.237 330.403 175.643C329.998 176.048 329.448 176.276 328.874 176.276C328.301 176.276 327.751 176.048 327.345 175.643C326.94 175.237 326.712 174.687 326.712 174.114C326.712 173.54 326.94 172.99 327.345 172.584C327.751 172.179 328.301 171.951 328.874 171.951C329.448 171.951 329.998 172.179 330.403 172.584C330.809 172.99 331.037 173.54 331.037 174.114Z" fill="black"/>
<path d="M366.489 162.1C366.43 162.636 366.175 163.131 365.774 163.49C365.372 163.849 364.852 164.048 364.313 164.048C363.775 164.048 363.255 163.849 362.853 163.49C362.452 163.131 362.197 162.636 362.138 162.1C362.197 161.565 362.452 161.07 362.853 160.711C363.255 160.351 363.775 160.153 364.313 160.153C364.852 160.153 365.372 160.351 365.774 160.711C366.175 161.07 366.43 161.565 366.489 162.1Z" fill="black"/>
<path d="M380.612 123.631C380.552 124.166 380.298 124.661 379.896 125.02C379.495 125.38 378.975 125.578 378.436 125.578C377.897 125.578 377.377 125.38 376.976 125.02C376.574 124.661 376.32 124.166 376.26 123.631C376.32 123.095 376.574 122.6 376.976 122.241C377.377 121.882 377.897 121.683 378.436 121.683C378.975 121.683 379.495 121.882 379.896 122.241C380.298 122.6 380.552 123.095 380.612 123.631Z" fill="black"/>
<path d="M413.982 104.409C413.923 104.945 413.668 105.44 413.267 105.799C412.865 106.158 412.345 106.357 411.807 106.357C411.268 106.357 410.748 106.158 410.346 105.799C409.945 105.44 409.69 104.945 409.631 104.409C409.69 103.874 409.945 103.379 410.346 103.02C410.748 102.66 411.268 102.462 411.807 102.462C412.345 102.462 412.865 102.66 413.267 103.02C413.668 103.379 413.923 103.874 413.982 104.409Z" fill="black"/>
<path d="M322.254 210.02C322.254 210.594 322.026 211.144 321.62 211.549C321.215 211.955 320.665 212.183 320.091 212.183C319.518 212.183 318.968 211.955 318.562 211.549C318.157 211.144 317.929 210.594 317.929 210.02C317.929 209.447 318.157 208.897 318.562 208.491C318.968 208.086 319.518 207.858 320.091 207.858C320.665 207.858 321.215 208.086 321.62 208.491C322.026 208.897 322.254 209.447 322.254 210.02Z" fill="black"/>
<path d="M284.265 197.046C284.205 197.581 283.95 198.076 283.549 198.435C283.147 198.795 282.628 198.993 282.089 198.993C281.55 198.993 281.03 198.795 280.629 198.435C280.227 198.076 279.972 197.581 279.913 197.046C279.972 196.51 280.227 196.015 280.629 195.656C281.03 195.297 281.55 195.098 282.089 195.098C282.628 195.098 283.147 195.297 283.549 195.656C283.95 196.015 284.205 196.51 284.265 197.046Z" fill="black"/>
<path d="M295.531 159.564C295.471 160.1 295.216 160.594 294.815 160.954C294.414 161.313 293.894 161.512 293.355 161.512C292.816 161.512 292.296 161.313 291.895 160.954C291.493 160.594 291.239 160.1 291.179 159.564C291.239 159.029 291.493 158.534 291.895 158.175C292.296 157.815 292.816 157.616 293.355 157.616C293.894 157.616 294.414 157.815 294.815 158.175C295.216 158.534 295.471 159.029 295.531 159.564Z" fill="black"/>
<path d="M285.653 120.401C285.593 120.936 285.339 121.431 284.937 121.79C284.536 122.15 284.016 122.348 283.477 122.348C282.938 122.348 282.418 122.15 282.017 121.79C281.616 121.431 281.361 120.936 281.301 120.401C281.361 119.865 281.616 119.37 282.017 119.011C282.418 118.652 282.938 118.453 283.477 118.453C284.016 118.453 284.536 118.652 284.937 119.011C285.339 119.37 285.593 119.865 285.653 120.401Z" fill="black"/>
<path d="M244.14 104.409C244.14 104.983 243.912 105.533 243.506 105.938C243.101 106.344 242.551 106.572 241.977 106.572C241.404 106.572 240.854 106.344 240.448 105.938C240.043 105.533 239.815 104.983 239.815 104.409C239.815 103.836 240.043 103.286 240.448 102.88C240.854 102.475 241.404 102.247 241.977 102.247C242.551 102.247 243.101 102.475 243.506 102.88C243.912 103.286 244.14 103.836 244.14 104.409Z" fill="black"/>
<path d="M432.082 64.8988C431.548 64.7119 430.908 65.1658 430.32 65.8332C430.873 63.4447 431.239 61.0169 431.415 58.5717C431.628 55.6885 431.708 50.7764 430 50.5628C429.68 50.5628 428.852 50.376 427.784 52.9388C427.918 50.99 428.318 44.6095 426.396 44.3159C424.474 44.0222 423.112 50.5895 421.858 54.7542C421.858 52.7252 421.51 45.3837 419.401 45.2503C418.921 45.2503 417.533 45.2503 416.225 52.1646C415.592 55.683 414.781 59.1669 413.795 62.6029L413.368 61.8287C409.524 55.0745 408.216 54.4071 407.335 54.7275C406.454 55.0478 405.92 56.3826 407.335 63.8042C408.936 71.8131 404.131 81.9311 403.063 84.0668L401.328 83.3994C401.223 83.3617 401.109 83.3596 401.003 83.3934C400.897 83.4272 400.804 83.4949 400.741 83.5863C389.552 99.7145 377.447 115.188 364.487 129.931C364.06 130.412 364.807 131.079 365.261 130.572C378.183 115.89 390.251 100.478 401.408 84.4138C409.446 87.1992 416.237 92.7417 420.576 100.058C393.88 143.199 358.026 178.171 342.302 192.481C344.118 183.698 339.846 172.779 339.633 172.272C339.572 172.17 339.477 172.094 339.366 172.055C339.254 172.016 339.133 172.017 339.022 172.058C338.911 172.099 338.818 172.178 338.759 172.28C338.7 172.382 338.678 172.502 338.698 172.619C338.698 172.992 349.377 210.608 280.1 250.038C285.439 240.054 276.763 213.811 272.091 202.545C267.419 191.279 256.233 169.709 245.475 164.369H263.521C285.252 185.219 283.944 184.071 284.264 184.071C284.352 184.066 284.437 184.038 284.511 183.99C284.584 183.942 284.644 183.876 284.685 183.798C284.725 183.72 284.744 183.633 284.741 183.545C284.737 183.457 284.711 183.372 284.665 183.297L224.865 90.1802C234.049 93.4639 257.061 79.9555 258.316 70.3982C271.664 93.1435 307.036 148.672 328.313 164.263C329.663 165.36 331.24 166.145 332.929 166.56C334.619 166.976 336.379 167.012 338.084 166.665C338.204 166.624 338.306 166.543 338.373 166.437C338.441 166.33 338.471 166.204 338.458 166.078C338.181 164.13 338.181 162.153 338.458 160.205C346.467 161.7 349.43 155.907 349.377 147.711C349.377 147.576 349.323 147.447 349.228 147.352C349.133 147.257 349.004 147.204 348.87 147.204C348.735 147.204 348.606 147.257 348.511 147.352C348.416 147.447 348.362 147.576 348.362 147.711C348.362 153.371 347.028 157.028 344.331 158.576C339.873 161.246 333.065 157.161 332.825 157.028C332.749 156.981 332.661 156.954 332.571 156.952C332.481 156.95 332.392 156.972 332.313 157.015C332.234 157.059 332.168 157.122 332.122 157.2C332.076 157.277 332.052 157.365 332.051 157.455C332.051 157.722 331.784 157.242 337.257 164.45C337.257 164.877 337.257 165.331 337.39 165.784C332.345 166.719 328.661 163.488 324.843 160.098C328.847 159.938 326.712 150.381 325.724 146.483C325.702 146.383 325.648 146.293 325.571 146.226C325.495 146.159 325.398 146.118 325.297 146.109C317.582 140.396 322.173 133.295 325.991 137.54C327.299 139.008 328.26 139.569 329.034 139.408C329.808 139.248 330.316 137.94 330.262 137.646C328.42 125.767 339.846 117.624 345.452 131.266C345.512 131.374 345.61 131.456 345.726 131.498C345.842 131.539 345.97 131.536 346.084 131.491C346.745 131.226 348.814 130.23 348.79 129.344C347.642 66.8209 337.577 55.4483 333.306 53.446C332.469 53.043 331.533 52.894 330.612 53.0173C329.692 53.1407 328.828 53.531 328.127 54.1401C326.888 55.3671 325.911 56.8324 325.255 58.4476C324.599 60.0627 324.277 61.7942 324.309 63.5373C317.822 44.6362 309.012 36.8409 303.246 37.8554C298.467 38.6296 295.877 44.7163 296.171 54.594C296.453 65.4117 298.306 76.1311 301.67 86.4161C296.198 76.9389 291.472 72.6407 288.109 74.2692C282.769 76.9389 284.051 92.9567 290.431 106.305C307.704 142.425 324.736 144.374 326.151 157.028C325.964 158.309 325.537 158.737 325.297 158.87C325.056 159.004 323.588 158.87 322.36 157.642C300.656 136.819 273.266 93.7309 258.075 67.8354C257.685 67.1096 257.113 66.4971 256.417 66.0574C255.72 65.6177 254.921 65.3657 254.098 65.3259L253.724 64.5517C252.862 62.9601 252.501 61.1457 252.686 59.3454C252.872 57.5451 253.596 55.8427 254.765 54.4605C265.443 41.5662 263.575 39.4571 262.961 38.763C259.517 34.9988 250.093 46.3448 245.074 46.9588C243.873 47.119 242.405 42.4204 242.084 40.1779C242.084 40.1779 239.628 24.1601 239.415 23.1457C239.014 20.129 238.026 15.1367 235.944 15.1367C233.862 15.1367 233.274 21.357 233.274 23.8131C233.274 29.0189 233.274 33.2369 233.274 35.9065C231.326 29.7397 228.389 20.5294 228.122 19.6217C227.241 16.6584 225.452 11.773 223.317 12.2535C221.715 12.6273 221.234 16.0711 222.089 21.2502C223.076 27.2035 224.144 34.1179 224.758 38.2024C223.29 34.9455 221.475 30.6206 219.606 25.4949C218.324 21.9977 216.402 17.9399 214.56 18.4471C212.291 19.0611 213.332 25.5483 213.706 27.5239C214.267 30.6206 215.628 37.1079 216.749 41.3793C215.601 39.297 214.4 36.921 213.305 34.3581C211.837 30.941 209.728 26.9632 207.966 27.5506C205.697 28.3248 207.165 34.9988 207.673 37.0278C209.461 44.1824 210.903 47.5194 214.587 60.574C216.88 68.1449 219.672 75.556 222.943 82.7587C220.834 86.95 222.943 88.5785 222.943 88.8988L270.596 163.382C237.199 163.382 242.458 163.195 239.788 163.755C235.864 165.411 234.449 172.085 235.944 182.443L163.864 194.51C120.936 102.327 124.033 108.627 123.526 108.708C121.657 108.708 119.922 108.975 118.186 109.188C115.143 102.968 115.383 94.3449 102.409 88.4183C89.4343 82.4917 69.8124 56.3826 65.7813 64.0979C63.7524 67.9689 87.1384 111.511 89.808 119.6C88.0995 120.748 86.4443 121.976 84.8959 123.257C84.82 123.321 84.7644 123.405 84.7359 123.5C84.7074 123.595 84.7074 123.696 84.7357 123.791C94.3998 156.067 104.625 188.396 115.517 220.111C69.7858 199.235 72.5088 200.303 72.135 200.65C71.0939 201.638 70.0527 202.679 69.0649 203.747C62.6044 200.57 57.6656 193.789 43.8102 197.046C29.9548 200.303 -0.238842 191.707 0.00142553 200.329C0.134907 205.669 49.8703 225.477 54.6756 228.601C54.0616 230.63 53.501 232.659 53.0471 234.661C53.0273 234.755 53.0343 234.852 53.0674 234.942C53.1004 235.031 53.1582 235.11 53.234 235.168C84.8934 259.93 118.752 281.743 154.387 300.334C158.697 302.645 163.474 303.95 168.361 304.154C173.248 304.357 178.117 303.453 182.605 301.509C214.135 288.128 244.284 271.703 272.625 252.467C273.686 252.99 274.875 253.194 276.049 253.057C277.224 252.92 278.334 252.446 279.246 251.693C313.737 232.338 328.714 213.464 335.174 200.116C361.871 177.664 398.445 137.807 421.644 100.271C421.694 100.197 421.721 100.108 421.721 100.018C421.721 99.9275 421.694 99.8392 421.644 99.7643C421.241 99.0014 420.795 98.2617 420.309 97.5485C421.617 95.386 430.133 80.97 432.269 71.0656C433.444 66.0467 432.803 65.1124 432.082 64.8988ZM223.076 21.1434C222.169 15.5906 223.076 13.4549 223.557 13.3214C224.037 13.1879 225.452 14.2825 227.161 19.9955C227.428 20.8765 233.835 41.1123 233.995 41.5928C231.848 42.4784 229.792 43.5692 227.855 44.8498C227.641 44.2625 228.069 45.4104 226.253 41.5662C226.12 40.5784 224.518 29.8731 223.076 21.1434ZM214.694 27.4171C213.626 21.8108 214.347 19.6217 214.694 19.4082C215.041 19.1946 216.482 20.2892 218.538 25.842C220.949 32.4368 223.712 38.8977 226.814 45.1969C225.035 46.4808 223.365 47.9094 221.822 49.4683C220.586 47.9394 219.487 46.3046 218.538 44.5828C216.935 38.9377 215.651 33.2067 214.694 27.4171ZM215.521 60.3871C211.891 47.4394 210.476 44.3693 208.634 36.8676C207.192 31.0745 207.779 28.8587 208.26 28.5917C208.74 28.3248 210.075 29.4193 212.371 34.8387C214.762 40.3582 217.771 45.5885 221.341 50.4294C219.739 52.1112 218.191 53.98 216.589 56.0356C216.162 56.5428 216.963 57.1568 217.363 56.6496C223.236 49.1212 228.496 44.1824 238 41.1924C238.071 41.1809 238.139 41.1542 238.2 41.1141C238.26 41.074 238.311 41.0214 238.35 40.9599C238.388 40.8984 238.413 40.8294 238.422 40.7576C238.431 40.6857 238.425 40.6127 238.404 40.5434C238.383 40.4741 238.347 40.4101 238.299 40.3558C238.251 40.3015 238.192 40.2581 238.126 40.2285C238.06 40.1989 237.988 40.1839 237.916 40.1844C237.843 40.1849 237.772 40.2009 237.706 40.2313C236.745 40.525 235.811 40.8454 235.036 41.1924L234.396 39.1902C234.396 38.3893 234.396 32.5428 234.396 23.8932C234.396 18.2335 235.57 16.258 236.104 16.2313C236.638 16.2046 237.813 17.5127 238.614 23.3859C238.747 24.347 241.283 40.4182 241.283 40.4182C241.283 40.4182 242.645 48.4271 245.395 48.0801C250.36 47.4394 259.891 36.8409 262.4 39.5372C262.854 40.0445 263.628 42.5806 254.178 53.9266C252.886 55.4659 252.086 57.3575 251.881 59.3565C251.677 61.3555 252.077 63.3699 253.03 65.1391C253.03 65.4327 256.527 72.1602 256.794 72.6407C252.763 80.6496 237.199 89.94 227.935 89.6463C222.746 80.3734 218.584 70.5623 215.521 60.3871ZM123.259 109.722C155.855 179.773 161.915 193.015 163.303 195.337C163.57 195.844 163.303 195.764 164.131 195.658L258.983 179.64C264.75 188.568 269.538 198.091 273.266 208.045L169.817 224.917C164.748 225.748 159.547 224.788 155.109 222.201C150.67 219.614 147.272 215.562 145.497 210.741L109.11 111.965C113.738 110.742 118.479 109.99 123.259 109.722ZM66.7958 64.5784C69.9192 58.5717 89.4343 83.5329 102.088 89.326C114.742 95.1191 114.128 102.674 117.172 109.322C107.747 110.546 98.7108 113.847 90.7157 118.986C87.966 111.164 65.194 67.6218 66.7958 64.5784ZM0.962497 200.303C0.802318 193.415 30.4887 201.237 44.0238 198.034C57.1317 194.937 61.8035 201.21 68.3175 204.521C62.3083 211.215 57.762 219.089 54.9693 227.64C49.6567 224.463 1.12267 204.654 0.962497 200.303ZM182.204 300.521C177.858 302.409 173.141 303.289 168.407 303.095C163.673 302.901 159.044 301.637 154.867 299.4C119.382 280.881 85.659 259.167 54.115 234.528C56.8528 221.997 63.2884 210.577 72.5889 201.744L115.944 221.553L123.953 244.112C126.382 250.946 131.017 256.778 137.127 260.688C143.236 264.599 150.473 266.365 157.697 265.709C198.622 261.945 230.898 256.018 259.277 247.021C259.388 246.97 259.477 246.88 259.527 246.768C259.577 246.656 259.584 246.53 259.549 246.413C259.513 246.296 259.436 246.196 259.332 246.131C259.228 246.066 259.104 246.041 258.983 246.06C230.658 254.977 198.462 260.877 157.537 264.748C150.517 265.37 143.489 263.633 137.567 259.814C131.644 255.994 127.163 250.309 124.834 243.658C111.485 205.989 100.353 173.099 85.857 123.818C92.3801 118.467 99.9437 114.531 108.068 112.258L144.482 211.035C146.119 215.474 149.077 219.304 152.958 222.011C156.838 224.717 161.455 226.169 166.186 226.172C168.856 226.172 160.046 227.48 273.533 208.952C279.085 223.769 281.782 237.731 280.5 245.713C249.833 267.515 216.872 285.894 182.204 300.521ZM427.277 57.931C428.745 51.7909 429.947 51.4438 429.947 51.4438C429.947 51.4438 430.908 53.0456 430.534 58.465C430.057 63.963 428.77 69.3605 426.716 74.4828C426.264 72.6512 425.648 70.8642 424.874 69.1435C425.933 65.4841 426.736 61.7554 427.277 57.9844V57.931ZM423.94 50.9633C425.301 45.624 426.236 45.1969 426.236 45.1969C426.236 45.1969 427.117 46.8253 426.85 51.7375C426.578 57.1615 425.682 62.5362 424.18 67.7553C423.359 66.0539 422.376 64.4357 421.243 62.9233C421.555 61.3121 421.733 59.6781 421.777 58.0378C422.525 56.1157 423.246 53.6863 423.94 51.0167V50.9633ZM431.281 70.9322C429.279 80.2225 421.51 93.6241 419.668 96.7209C415.698 91.2666 410.305 87.009 404.078 84.4138C405.279 82.0646 410.111 71.8932 408.429 63.5373C407.014 56.6229 407.602 55.7152 407.682 55.5284C407.762 55.3415 408.91 55.8487 412.487 62.1491C416.064 68.4494 418.12 83.346 418.147 83.5062C418.147 84.2003 419.215 83.9867 419.134 83.5062C418.243 76.8482 416.669 70.2997 414.436 63.9644C415.546 60.1384 416.438 56.2522 417.106 52.3248C418.013 47.4394 418.974 46.2647 419.215 46.238C419.455 46.2113 420.229 46.6385 420.656 52.9655C420.829 56.0034 420.722 59.0508 420.336 62.069C419.973 61.6251 419.58 61.2059 419.161 60.8142C418.681 60.3604 417.987 61.1079 418.467 61.535C422.687 66.144 425.381 71.9429 426.182 78.1402C426.182 78.2747 426.236 78.4037 426.331 78.4989C426.426 78.594 426.555 78.6474 426.69 78.6474C426.824 78.6474 426.953 78.594 427.048 78.4989C427.143 78.4037 427.197 78.2747 427.197 78.1402C426.903 76.0045 426.77 76.7787 427.197 75.4706C427.624 74.1624 428.585 71.7864 429.333 69.1702C429.805 67.9188 430.575 66.801 431.575 65.9132C431.575 65.9132 432.269 66.4472 431.281 70.9322Z" fill="black"/>
</svg>
