<svg width="86" height="24" viewBox="0 0 86 24" fill="none" xmlns="http://www.w3.org/2000/svg">
<path d="M15.1629 16.4133H7.16269C6.27692 18.411 5.83404 19.7962 5.83404 20.5688C5.83404 21.1342 6.04135 21.4923 6.45596 21.6431C6.88942 21.7938 7.53019 21.8692 8.37827 21.8692V23H0.6325V21.8692C1.08481 21.8127 1.47115 21.7373 1.79154 21.6431C2.13077 21.5488 2.42288 21.4169 2.66788 21.2473C2.93173 21.0777 3.15789 20.861 3.34635 20.5971C3.53481 20.3144 3.71385 19.9752 3.88346 19.5794L11.3183 0.949997H13.4102L20.1665 17.4592C20.5623 18.4204 20.8921 19.1742 21.156 19.7208C21.4387 20.2673 21.7308 20.6913 22.0323 20.9929C22.3527 21.2756 22.7108 21.4735 23.1065 21.5865C23.5212 21.6996 24.0488 21.7844 24.6896 21.841V23H14.0038V21.841C14.9085 21.8033 15.5587 21.709 15.9544 21.5583C16.3502 21.4075 16.5481 21.106 16.5481 20.6537C16.5481 20.3898 16.4821 20.0506 16.3502 19.636C16.2183 19.2213 16.0392 18.7125 15.8131 18.1094L15.1629 16.4133ZM7.81289 14.7171H14.541L11.29 6.15154H11.1769L7.81289 14.7171ZM36.2581 12.6535C36.2581 11.8996 36.2393 11.306 36.2016 10.8725C36.1639 10.4202 36.0603 10.081 35.8906 9.85481C35.721 9.60981 35.4666 9.44961 35.1274 9.37423C34.807 9.28 34.3641 9.20461 33.7987 9.14808V8.01731H40.1876V16.5829C40.1876 17.7325 40.197 18.6371 40.2158 19.2967C40.2535 19.9375 40.3101 20.4181 40.3854 20.7385C40.442 20.9835 40.5079 21.1813 40.5833 21.3321C40.6587 21.464 40.7812 21.5771 40.9508 21.6713C41.1204 21.7467 41.3466 21.8033 41.6293 21.841C41.9308 21.8598 42.3172 21.8692 42.7883 21.8692V22.9717L37.1628 23.311L36.8518 20.795H36.7387C36.2487 21.5865 35.5608 22.199 34.6751 22.6325C33.7893 23.066 32.7999 23.2827 31.7068 23.2827C29.6903 23.2827 28.1543 22.5665 27.0989 21.1342C26.2885 20.0412 25.8833 18.4863 25.8833 16.4698V12.6535C25.8833 11.8808 25.8645 11.2777 25.8268 10.8442C25.7891 10.3919 25.6854 10.0527 25.5158 9.82654C25.3651 9.60038 25.1295 9.44961 24.8091 9.37423C24.4887 9.28 24.0458 9.20461 23.4804 9.14808V8.01731H29.8128V16.0175C29.8128 17.921 30.0483 19.3062 30.5195 20.1731C30.9906 21.0212 31.7445 21.4452 32.781 21.4452C33.8929 21.4452 34.7504 20.9363 35.3535 19.9187C35.9566 18.9387 36.2581 17.4969 36.2581 15.5935V12.6535ZM50.4489 18.6183C50.4489 19.3533 50.4771 19.9375 50.5337 20.371C50.609 20.7856 50.7504 21.106 50.9577 21.3321C51.165 21.5583 51.4665 21.709 51.8623 21.7844C52.2581 21.841 52.7858 21.8692 53.4454 21.8692V23H44.0035V21.8692C44.5688 21.8315 45.0212 21.775 45.3604 21.6996C45.6996 21.6242 45.954 21.4735 46.1237 21.2473C46.2933 21.0212 46.3969 20.7008 46.4346 20.2862C46.4912 19.8527 46.5194 19.2779 46.5194 18.5617V15.1129C46.5194 13.9444 46.4912 13.0115 46.4346 12.3142C46.3781 11.6169 46.2556 11.0798 46.0671 10.7029C45.8787 10.326 45.6054 10.081 45.2473 9.96788C44.9081 9.83596 44.4558 9.77 43.8904 9.77V8.78057L49.5442 7.73461L49.9965 10.9856H50.1096C50.6185 9.98673 51.2875 9.19519 52.1167 8.61096C52.946 8.02673 53.8223 7.73461 54.7458 7.73461C55.4619 7.73461 56.0462 7.91365 56.4985 8.27173C56.9508 8.62981 57.1769 9.08211 57.1769 9.62865C57.1769 10.2317 56.9979 10.7406 56.6398 11.1552C56.3006 11.5698 55.8294 11.7771 55.2264 11.7771C54.9437 11.7771 54.6892 11.7206 54.4631 11.6075C54.2369 11.4944 54.0296 11.3719 53.8412 11.24C53.6715 11.0892 53.4925 10.9573 53.304 10.8442C53.1344 10.7123 52.9554 10.6463 52.7669 10.6463C52.4089 10.6463 52.0696 10.8819 51.7492 11.3531C51.4289 11.8242 51.165 12.4556 50.9577 13.2471C50.8069 13.8125 50.6844 14.4533 50.5902 15.1694C50.496 15.8667 50.4489 16.564 50.4489 17.2613V18.6183ZM66.9594 14.9433C65.3763 15.6594 64.1796 16.3285 63.3692 16.9504C62.5777 17.5535 62.1819 18.1848 62.1819 18.8444C62.1819 19.391 62.3327 19.8244 62.6342 20.1448C62.9358 20.4652 63.3127 20.6254 63.765 20.6254C64.2173 20.6254 64.6413 20.55 65.0371 20.3992C65.4329 20.2296 65.7721 20.0129 66.0548 19.749C66.3375 19.4852 66.5542 19.1742 66.705 18.8162C66.8746 18.4392 66.9594 18.0435 66.9594 17.6288V14.9433ZM66.9594 13.445V12.2577C66.9594 11.1646 66.7615 10.3731 66.3658 9.88308C65.9888 9.37423 65.3952 9.11981 64.5848 9.11981C64.0383 9.11981 63.6236 9.27057 63.3409 9.57211C63.0583 9.85481 62.7944 10.3354 62.5494 11.0138C62.3798 11.485 62.1348 11.8525 61.8144 12.1163C61.5129 12.3802 61.0888 12.5121 60.5423 12.5121C60.0146 12.5121 59.6094 12.3519 59.3267 12.0315C59.044 11.7112 58.9027 11.2588 58.9027 10.6746C58.9027 9.77 59.3927 9.05384 60.3727 8.52615C61.3715 7.99846 62.8698 7.73461 64.8675 7.73461C66.9783 7.73461 68.486 8.12096 69.3906 8.89365C70.2952 9.6475 70.7475 10.9196 70.7475 12.71V18.901C70.7475 20.5029 71.0679 21.3038 71.7086 21.3038C72.0667 21.3038 72.3965 21.1813 72.6981 20.9363L73.1221 21.7562C72.8583 22.2273 72.4436 22.6042 71.8783 22.8869C71.3317 23.1508 70.7098 23.2827 70.0125 23.2827C69.1456 23.2827 68.486 23.0188 68.0336 22.4912C67.5813 21.9635 67.3552 21.219 67.3552 20.2579H67.2138C66.6673 21.2379 65.9606 21.9823 65.0936 22.4912C64.2267 23 63.2373 23.2544 62.1254 23.2544C60.9381 23.2544 59.9863 22.9246 59.2702 22.265C58.554 21.5865 58.1959 20.7102 58.1959 19.636C58.1959 18.8067 58.5634 18.034 59.2984 17.3179C60.0334 16.5829 61.2584 15.8667 62.9734 15.1694L66.9594 13.445ZM75.8704 23H74.9941V17.855H76.1814C76.5017 19.2119 76.9635 20.2013 77.5666 20.8233C78.1696 21.4452 78.9517 21.7562 79.9129 21.7562C80.6102 21.7562 81.1473 21.6148 81.5242 21.3321C81.92 21.0306 82.1179 20.6254 82.1179 20.1165C82.1179 19.5888 81.8823 19.08 81.4112 18.59C80.94 18.0812 80.1767 17.544 79.1214 16.9787C77.6891 16.206 76.6619 15.4427 76.04 14.6888C75.4181 13.9162 75.1071 13.0492 75.1071 12.0881C75.1071 11.4662 75.2202 10.8913 75.4464 10.3637C75.6914 9.81711 76.0117 9.34596 76.4075 8.95019C76.8221 8.55442 77.3121 8.25288 77.8775 8.04557C78.4429 7.81942 79.0554 7.70634 79.715 7.70634C80.2992 7.70634 80.8741 7.79115 81.4394 7.96077C82.0237 8.13038 82.5325 8.36596 82.966 8.6675L83.4748 7.98904H84.2098V12.2577H83.1073C82.6739 11.1835 82.2216 10.4108 81.7504 9.93961C81.2981 9.46846 80.7421 9.23288 80.0825 9.23288C79.5548 9.23288 79.1308 9.37423 78.8104 9.65692C78.5089 9.93961 78.3581 10.3165 78.3581 10.7877C78.3581 11.3154 78.5842 11.8148 79.0366 12.286C79.5077 12.7571 80.2804 13.2754 81.3546 13.8408C82.1085 14.2554 82.7587 14.6606 83.3052 15.0563C83.8517 15.4521 84.2946 15.8573 84.6339 16.2719C84.9731 16.6677 85.2181 17.0917 85.3689 17.544C85.5385 17.9775 85.6233 18.4487 85.6233 18.9575C85.6233 19.6171 85.5008 20.2108 85.2558 20.7385C85.0108 21.2662 84.6621 21.7185 84.2098 22.0954C83.7575 22.4723 83.211 22.7644 82.5702 22.9717C81.9483 23.179 81.251 23.2827 80.4783 23.2827C79.6679 23.2827 78.9141 23.179 78.2167 22.9717C77.5194 22.7456 76.9446 22.4252 76.4923 22.0106L75.8704 23Z" fill="#6700E8"/>
</svg>
