<svg width="383" height="365" viewBox="0 0 383 365" fill="none" xmlns="http://www.w3.org/2000/svg">
<path d="M193.834 291.008C187.617 287.964 180.445 287.512 173.896 289.752C165.465 292.624 156.523 284.454 159.986 275.522L175.028 236.831C175.047 236.784 175.055 236.735 175.054 236.685C175.053 236.636 175.043 236.586 175.023 236.541C175.003 236.495 174.974 236.454 174.938 236.42C174.902 236.386 174.859 236.359 174.813 236.341L57.2084 190.616C55.796 190.066 54.2891 189.8 52.7737 189.832C51.2583 189.865 49.7642 190.196 48.3768 190.806C46.9893 191.416 45.7358 192.294 44.6878 193.389C43.6398 194.484 42.818 195.775 42.2692 197.188L0.779811 303.903C-0.325118 306.756 -0.253382 309.931 0.979285 312.732C2.21195 315.532 4.50493 317.73 7.35538 318.842C128.506 365.935 124.905 364.601 125.107 364.601C125.183 364.601 125.258 364.578 125.321 364.535C125.384 364.492 125.433 364.43 125.46 364.359L139.488 328.276C140.286 326.359 141.608 324.706 143.302 323.507C144.997 322.307 146.995 321.609 149.068 321.493C151.141 321.377 153.204 321.847 155.022 322.85C156.84 323.853 158.338 325.348 159.345 327.163C161.327 330.775 164.133 333.868 167.534 336.192C170.935 338.517 174.837 340.006 178.922 340.54C183.007 341.074 187.16 340.638 191.044 339.266C194.929 337.894 198.435 335.626 201.279 332.646C204.123 329.665 206.224 326.056 207.412 322.111C208.599 318.167 208.84 313.998 208.115 309.942C207.39 305.887 205.719 302.06 203.237 298.772C200.756 295.483 197.534 292.826 193.834 291.016V291.008ZM206.654 322.091C205.176 326.869 202.324 331.105 198.453 334.271C194.582 337.437 189.865 339.393 184.889 339.894C179.914 340.395 174.901 339.42 170.476 337.089C166.052 334.759 162.412 331.177 160.011 326.79C158.943 324.836 157.343 323.224 155.397 322.143C153.45 321.062 151.236 320.555 149.013 320.682C146.79 320.808 144.648 321.563 142.837 322.859C141.025 324.154 139.619 325.937 138.78 328L124.891 363.716L7.62752 318.134C4.96585 317.095 2.82485 315.042 1.67358 312.427C0.5223 309.811 0.454613 306.846 1.48534 304.181L42.9747 197.464C43.4872 196.144 44.2548 194.938 45.2337 193.915C46.2126 192.891 47.3835 192.071 48.6795 191.501C49.9756 190.93 51.3714 190.621 52.7871 190.59C54.2028 190.56 55.6106 190.808 56.9302 191.322L174.192 236.921L159.289 275.258C158.512 277.347 158.345 279.613 158.806 281.793C159.268 283.973 160.339 285.977 161.895 287.572C163.451 289.167 165.429 290.287 167.597 290.802C169.765 291.316 172.034 291.205 174.141 290.48C178.585 288.967 183.36 288.713 187.939 289.746C192.518 290.778 196.722 293.056 200.087 296.329C203.452 299.601 205.846 303.741 207.005 308.289C208.164 312.837 208.043 317.618 206.654 322.102V322.091Z" fill="black"/>
<path d="M294.681 109.909C294.619 109.909 294.559 109.894 294.504 109.865C294.45 109.836 294.403 109.795 294.368 109.744C294.333 109.693 294.311 109.635 294.304 109.574C294.297 109.513 294.304 109.451 294.326 109.393L294.459 109.049C294.495 108.955 294.568 108.879 294.66 108.839C294.705 108.818 294.754 108.808 294.804 108.806C294.854 108.805 294.903 108.814 294.95 108.832C294.996 108.85 295.039 108.877 295.075 108.911C295.111 108.946 295.14 108.987 295.16 109.032C295.18 109.078 295.191 109.127 295.192 109.177C295.193 109.227 295.185 109.276 295.167 109.323C295.042 109.649 294.993 109.909 294.681 109.909Z" fill="black"/>
<path d="M358.318 145.793L333.12 136.04C331.204 135.242 329.552 133.92 328.352 132.226C327.153 130.532 326.455 128.534 326.339 126.461C326.223 124.389 326.693 122.325 327.696 120.508C328.698 118.69 330.193 117.192 332.007 116.185C336.383 113.787 339.983 110.191 342.385 105.817C344.787 101.444 345.891 96.4761 345.566 91.4973C345.241 86.5185 343.502 81.7358 340.553 77.7115C337.603 73.6872 333.566 70.5884 328.917 68.7796C324.267 66.9707 319.197 66.5269 314.303 67.5003C309.41 68.4737 304.896 70.8239 301.292 74.2745C297.689 77.7252 295.145 82.1329 293.96 86.9796C292.775 91.8262 292.999 96.9104 294.604 101.634C295.421 104.113 295.364 106.797 294.443 109.238C294.392 109.279 294.353 109.332 294.33 109.393C293.291 112.056 291.237 114.198 288.621 115.349C286.004 116.5 283.038 116.567 280.372 115.533L241.85 100.558C241.811 100.514 241.762 100.479 241.707 100.457C241.652 100.436 241.593 100.427 241.534 100.432C241.475 100.438 241.419 100.457 241.368 100.488C241.318 100.519 241.276 100.562 241.246 100.612C241.084 100.814 241.018 101.35 231.14 126.59C231.11 126.682 231.116 126.783 231.157 126.871C231.199 126.958 231.272 127.027 231.363 127.062C231.453 127.097 231.554 127.096 231.644 127.06C231.734 127.023 231.806 126.953 231.846 126.864L241.77 101.34L280.096 116.241C282.949 117.346 286.124 117.274 288.924 116.042C291.724 114.81 293.921 112.517 295.033 109.667C295.056 109.606 295.063 109.54 295.054 109.476C295.104 109.436 295.143 109.383 295.167 109.323C296.148 106.778 296.202 103.969 295.318 101.389C293.756 96.7994 293.538 91.8599 294.688 87.1509C295.838 82.4418 298.308 78.159 301.809 74.806C305.31 71.453 309.695 69.1693 314.449 68.2233C319.203 67.2774 324.129 67.7085 328.647 69.4661C333.164 71.2237 337.086 74.2346 339.951 78.1448C342.816 82.0551 344.505 86.702 344.819 91.5392C345.133 96.3765 344.06 101.203 341.725 105.451C339.39 109.699 335.891 113.192 331.639 115.519C329.697 116.597 328.098 118.2 327.027 120.144C325.955 122.089 325.454 124.296 325.58 126.513C325.706 128.73 326.455 130.866 327.741 132.677C329.026 134.487 330.797 135.898 332.848 136.748L358.046 146.498C359.366 147.011 360.572 147.778 361.596 148.757C362.619 149.736 363.439 150.908 364.01 152.204C364.58 153.5 364.89 154.896 364.92 156.312C364.951 157.728 364.702 159.136 364.188 160.456L322.7 267.173C322.188 268.493 321.42 269.699 320.44 270.721C319.461 271.744 318.29 272.564 316.994 273.134C315.698 273.704 314.302 274.013 312.886 274.044C311.47 274.074 310.062 273.825 308.743 273.311L192.483 228.114L207.388 189.778C208.042 188.062 208.281 186.217 208.088 184.391C207.895 182.565 207.274 180.811 206.276 179.27C205.278 177.73 203.931 176.446 202.344 175.523C200.757 174.6 198.975 174.065 197.142 173.96C197.092 173.955 197.041 173.961 196.994 173.977C196.946 173.992 196.902 174.017 196.864 174.049C196.825 174.082 196.794 174.122 196.772 174.166C196.749 174.211 196.735 174.26 196.732 174.31C196.728 174.36 196.735 174.41 196.751 174.458C196.767 174.505 196.792 174.549 196.825 174.587C196.858 174.625 196.898 174.656 196.943 174.678C196.988 174.7 197.037 174.713 197.087 174.716C198.802 174.812 200.47 175.311 201.955 176.173C203.441 177.035 204.702 178.235 205.636 179.675C206.571 181.116 207.153 182.757 207.334 184.465C207.516 186.172 207.292 187.899 206.681 189.504L191.639 228.193C191.603 228.287 191.606 228.392 191.647 228.484C191.687 228.576 191.763 228.648 191.856 228.685L308.467 274.012C309.879 274.563 311.386 274.829 312.902 274.797C314.417 274.764 315.912 274.433 317.299 273.822C318.686 273.211 319.94 272.333 320.987 271.237C322.035 270.142 322.856 268.85 323.404 267.437L364.891 160.724C365.441 159.312 365.706 157.806 365.673 156.291C365.64 154.776 365.309 153.283 364.698 151.896C364.088 150.51 363.21 149.257 362.115 148.21C361.02 147.162 359.73 146.341 358.318 145.793Z" fill="black"/>
<path d="M154.142 126.58C157.737 122.946 162.317 120.443 167.316 119.379C172.316 118.315 177.518 118.736 182.281 120.591C182.372 120.63 182.444 120.702 182.483 120.793C182.521 120.884 182.522 120.986 182.486 121.078C182.45 121.17 182.38 121.244 182.29 121.285C182.2 121.326 182.098 121.33 182.005 121.297C177.38 119.496 172.329 119.088 167.474 120.122C162.62 121.155 158.173 123.586 154.683 127.114C154.648 127.15 154.606 127.178 154.56 127.197C154.514 127.217 154.465 127.227 154.415 127.227C154.314 127.228 154.217 127.188 154.145 127.117C154.074 127.046 154.033 126.95 154.033 126.849C154.032 126.749 154.072 126.652 154.142 126.58Z" fill="black"/>
<path d="M230.358 95.2222C230.259 95.0004 235.555 97.238 112.526 49.2919C111.114 48.7421 109.607 48.4761 108.091 48.509C106.576 48.542 105.082 48.8732 103.695 49.4839C102.307 50.0946 101.054 50.9727 100.007 52.0681C98.9589 53.1634 98.1373 54.4545 97.589 55.8675L87.7699 80.8636C86.9807 82.7888 85.6624 84.4512 83.9675 85.6583C82.2727 86.8654 80.2706 87.5678 78.1931 87.6842C76.1156 87.8007 74.0477 87.3263 72.2285 86.3162C70.4094 85.306 68.9136 83.8013 67.9142 81.9763C65.5168 77.6009 61.9201 74.0008 57.5469 71.5992C53.1738 69.1975 48.2059 68.0942 43.2273 68.4189C38.2486 68.7436 33.4662 70.4827 29.442 73.432C25.4177 76.3812 22.3191 80.4179 20.5101 85.0676C18.7012 89.7173 18.2572 94.7868 19.2304 99.6802C20.2035 104.574 22.5533 109.087 26.0036 112.691C29.4539 116.295 33.8613 118.839 38.7077 120.024C43.554 121.209 48.6381 120.987 53.3621 119.382C55.3324 118.709 57.453 118.608 59.4783 119.09C61.5036 119.573 63.3509 120.619 64.8062 122.108C66.2616 123.597 67.2655 125.467 67.7017 127.503C68.1379 129.539 67.9887 131.657 67.2712 133.611L56.0996 162.586C55.5504 163.999 55.2851 165.507 55.3189 167.022C55.3527 168.537 55.6849 170.031 56.2966 171.418C56.9082 172.805 57.7873 174.058 58.8835 175.105C59.9797 176.152 61.2716 176.972 62.6852 177.52L146.505 210.111C146.598 210.148 146.703 210.145 146.795 210.105C146.887 210.064 146.959 209.988 146.995 209.895C147.032 209.801 147.029 209.696 146.989 209.604C146.948 209.512 146.873 209.44 146.779 209.404L62.9493 176.814C61.6295 176.302 60.4236 175.534 59.4005 174.555C58.3773 173.577 57.5571 172.406 56.9865 171.11C56.4159 169.814 56.1062 168.419 56.0751 167.003C56.044 165.588 56.292 164.18 56.8051 162.861L67.9727 133.889C71.6677 124.381 62.1651 115.586 53.1182 118.668C48.5295 120.229 43.5906 120.447 38.8822 119.297C34.1738 118.147 29.8916 115.676 26.5392 112.176C23.1868 108.675 20.9035 104.29 19.9578 99.5366C19.012 94.783 19.4432 89.8581 21.2006 85.3411C22.958 80.8241 25.9685 76.9027 29.8781 74.038C33.7878 71.1734 38.4341 69.4845 43.2708 69.1701C48.1074 68.8556 52.9332 69.9286 57.1809 72.2629C61.4286 74.5972 64.9215 78.0957 67.249 82.3472C68.6881 84.9216 71.0272 86.8738 73.8175 87.8291C76.6078 88.7845 79.6526 88.6758 82.3676 87.5238C83.7571 86.9167 85.0124 86.0401 86.0608 84.9446C87.1092 83.8491 87.93 82.5566 88.4755 81.1417L98.2905 56.1457C98.8029 54.8257 99.5706 53.6196 100.549 52.5964C101.528 51.5731 102.699 50.7529 103.995 50.1825C105.291 49.612 106.687 49.3026 108.103 49.2719C109.518 49.2412 110.926 49.4898 112.246 50.0035L229.516 95.5951L217.177 127.211C217.14 127.305 217.143 127.409 217.184 127.501C217.224 127.593 217.3 127.666 217.394 127.702C217.487 127.738 217.592 127.736 217.684 127.695C217.776 127.655 217.848 127.579 217.884 127.485C231.281 93.1943 230.457 95.4479 230.358 95.2222Z" fill="black"/>
<path d="M300.464 227.346L231.743 237.581C231.743 237.581 226.395 214.072 225.506 210.008C220.658 187.901 201.47 180.35 196.144 178.663C196.09 178.886 196.043 179.112 195.999 179.328C187.516 188.086 169.793 195.114 161.577 190.213C122.837 240.81 98.9275 273.883 47.7139 322.356C39.8522 329.655 62.778 354.737 70.6759 347.553C130.31 293.695 149.053 275.861 187.26 229.134L207.001 263.028C209.19 266.785 212.482 269.778 216.429 271.601C220.376 273.425 224.789 273.99 229.068 273.222L306.3 259.327C313.262 258.126 307.461 226.07 300.464 227.346Z" fill="white"/>
<path d="M330.026 122.446C328.831 122.821 317.518 125.895 316.786 126.177C318.933 123.877 321.382 121.877 324.065 120.234C329.44 116.807 328.597 114.076 321.788 117.144C321.044 117.487 313.47 120.734 311.225 121.702C309.842 122.29 306.28 123.314 305.542 122.274C303.389 119.279 304.685 110.192 301.44 109.684C299.337 109.355 299.003 115.572 298.332 119.787C297.928 122.222 294.375 124.369 291.581 124.56C291.506 124.56 292.568 124.472 282.078 125.528C279.861 131.914 280.917 143.098 284.608 148.522L291.72 147.944C306.758 146.414 311.11 145.273 322.985 143.509C335.928 141.582 335.158 139.01 327.133 139.122C324.133 139.16 321.137 138.876 318.197 138.274C318.772 138.274 323.545 136.824 329.274 135.049C336.082 132.936 336.487 130.176 328.228 131.349C325.28 131.796 322.3 131.995 319.318 131.942C319.752 131.757 326.817 128.781 332.133 125.923C338.112 122.71 337.106 120.246 330.026 122.446Z" fill="white"/>
<path d="M199.267 127.03C184.134 130.789 169.906 131.204 156.947 127.03C164.204 127.39 168.27 126.094 170.6 124.79C171.645 123.469 172.324 121.896 172.569 120.23C172.814 118.563 172.616 116.861 171.995 115.296C162.434 116.803 162.901 102.882 165.996 94.1558L167.346 91.0414C171.646 82.9217 178.409 85.3588 179.925 94.3211C180.064 95.329 180.647 95.2625 180.751 95.194C181.357 95.0221 181.924 94.7346 182.421 94.3473C185.982 91.878 188.432 98.1209 183.124 99.8989C182.446 103.77 182.053 107.685 181.947 111.613C181.82 120.482 184.33 123 186.859 124.375C190.791 126.034 195.001 126.935 199.267 127.03V127.03Z" fill="white"/>
<path d="M241.602 18.7867C243.137 16.4615 243.824 13.6782 243.546 10.9059C243.269 8.1336 242.044 5.54175 240.078 3.56718C238.112 1.5926 235.526 0.35604 232.755 0.0658834C229.984 -0.224273 227.198 0.449718 224.866 1.97427C222.534 3.49882 220.798 5.78072 219.952 8.43539C219.106 11.0901 219.202 13.9552 220.222 16.5479C221.242 19.1407 223.125 21.3024 225.553 22.669C227.981 24.0355 230.806 24.5233 233.551 24.05L235.041 31.319C234.683 31.4641 234.39 31.7327 234.213 32.076C234.037 32.4192 233.989 32.8144 234.079 33.1897L237.343 49.1146C237.442 49.5459 237.707 49.9212 238.079 50.1602C238.452 50.3993 238.903 50.4832 239.337 50.394C239.77 50.3047 240.152 50.0494 240.4 49.6827C240.647 49.3159 240.742 48.8668 240.663 48.4312L237.401 32.5063C237.337 32.1269 237.139 31.7831 236.843 31.5369C236.548 31.2907 236.174 31.1583 235.789 31.1638L234.297 23.8968C237.297 23.192 239.912 21.3629 241.602 18.7867V18.7867ZM220.37 14.3943C219.995 12.5654 220.078 10.6723 220.609 8.88281C221.141 7.0933 222.106 5.46254 223.418 4.13494C224.731 2.80735 226.351 1.82389 228.134 1.27168C229.917 0.719463 231.809 0.615529 233.642 0.969083C235.475 1.32264 237.193 2.12277 238.643 3.29861C240.093 4.47445 241.231 5.98972 241.955 7.71022C242.68 9.43071 242.969 11.3033 242.797 13.1623C242.625 15.0212 241.997 16.809 240.969 18.3674C239.728 20.2351 237.963 21.694 235.895 22.5608C233.827 23.4276 231.549 23.6635 229.347 23.2389C227.145 22.8142 225.118 21.7479 223.521 20.1742C221.923 18.6004 220.827 16.5895 220.37 14.3943V14.3943Z" fill="black"/>
<path d="M382.724 218.529L378.263 217.225C377.759 217.078 377.289 216.833 376.88 216.504C376.471 216.175 376.131 215.769 375.879 215.309C375.627 214.848 375.469 214.343 375.412 213.821C375.356 213.299 375.403 212.772 375.551 212.268L376.856 207.809C376.877 207.715 376.861 207.616 376.812 207.532C376.763 207.449 376.684 207.388 376.591 207.36C376.498 207.333 376.398 207.342 376.312 207.386C376.225 207.43 376.159 207.505 376.126 207.595L374.822 212.054C374.675 212.558 374.43 213.028 374.102 213.438C373.773 213.847 373.367 214.187 372.907 214.44C372.447 214.692 371.942 214.851 371.42 214.907C370.898 214.964 370.37 214.917 369.867 214.77L365.406 213.465C365.312 213.448 365.216 213.466 365.136 213.517C365.055 213.567 364.997 213.645 364.971 213.737C364.946 213.828 364.956 213.926 364.999 214.01C365.042 214.095 365.115 214.16 365.204 214.193L369.663 215.497C370.167 215.644 370.636 215.889 371.045 216.218C371.454 216.547 371.794 216.953 372.046 217.413C372.298 217.873 372.457 218.378 372.514 218.9C372.57 219.421 372.524 219.949 372.376 220.452L371.072 224.913C371.044 225.01 371.055 225.114 371.103 225.202C371.151 225.29 371.233 225.356 371.329 225.384C371.426 225.412 371.529 225.401 371.618 225.353C371.706 225.305 371.772 225.223 371.8 225.127L373.106 220.664C373.404 219.648 374.093 218.791 375.022 218.283C375.951 217.774 377.044 217.656 378.061 217.953C381.603 218.991 382.425 219.273 382.627 219.273C382.718 219.272 382.805 219.238 382.873 219.177C382.941 219.116 382.985 219.033 382.997 218.943C383.009 218.853 382.988 218.761 382.937 218.685C382.887 218.609 382.811 218.554 382.724 218.529V218.529ZM373.249 218.771C373.103 217.553 372.493 216.437 371.546 215.657C372.764 215.511 373.88 214.9 374.658 213.951C374.806 215.17 375.416 216.285 376.364 217.066C375.146 217.217 374.032 217.83 373.253 218.779L373.249 218.771Z" fill="black"/>
<path d="M128.52 60.1128L116.985 6.49227C116.975 6.44353 116.955 6.39734 116.926 6.35635C116.898 6.31536 116.862 6.28038 116.82 6.25341C116.778 6.22644 116.731 6.20802 116.682 6.1992C116.633 6.19038 116.582 6.19133 116.534 6.202L98.7462 10.032C97.7563 10.2622 96.8519 10.7684 96.138 11.4919C95.4241 12.2154 94.93 13.1264 94.7131 14.1194C94.4961 15.1124 94.5652 16.1465 94.9123 17.1018C95.2594 18.057 95.8702 18.8943 96.674 19.5164C98.3202 20.7939 99.5676 22.5149 100.269 24.477C100.971 26.4391 101.098 28.5607 100.635 30.5925C100.173 32.6243 99.1394 34.4817 97.6572 35.9465C96.1751 37.4112 94.3055 38.4223 92.2684 38.861C90.2313 39.2996 88.1113 39.1476 86.1577 38.4227C84.204 37.6978 82.4979 36.4302 81.24 34.7689C79.982 33.1077 79.2245 31.1218 79.0565 29.0448C78.8885 26.9678 79.3169 24.8859 80.2915 23.0441C80.7668 22.1465 80.978 21.1326 80.9006 20.1198C80.8233 19.1071 80.4605 18.137 79.8544 17.322C79.2483 16.507 78.4236 15.8805 77.4759 15.515C76.5283 15.1495 75.4965 15.0601 74.5001 15.257L57.91 18.827C57.8119 18.8483 57.7263 18.9075 57.6719 18.9918C57.6175 19.0761 57.5987 19.1785 57.6197 19.2765L69.1541 72.8971C69.4092 74.0749 70.0592 75.1303 70.9963 75.8881C71.9334 76.6459 73.1014 77.0607 74.3066 77.0638C75.133 77.0638 71.7384 77.7391 124.476 66.38C125.153 66.2348 125.796 65.9574 126.366 65.5636C126.936 65.1699 127.423 64.6675 127.798 64.0854C128.174 63.5032 128.431 62.8526 128.555 62.171C128.679 61.4893 128.667 60.7899 128.52 60.1128Z" fill="#6700E8"/>
<path d="M111.688 85.3124C110.311 80.5249 108.928 74.6649 108.396 72.1371C107.709 68.8695 106.536 58.0869 104.671 60.5522C103.304 62.3665 102.857 68.0107 102.556 71.0889L89.0605 73.9916C90.142 79.7348 91.8132 85.3511 94.0477 90.7511C99.6315 88.0886 105.574 86.2564 111.688 85.3124V85.3124Z" fill="white"/>
<path d="M274.718 345.606L256.467 338.528L263.544 320.277C263.562 320.231 263.571 320.181 263.57 320.131C263.569 320.082 263.558 320.033 263.538 319.987C263.518 319.941 263.489 319.9 263.453 319.866C263.417 319.831 263.374 319.804 263.328 319.786C263.281 319.768 263.232 319.76 263.182 319.761C263.132 319.762 263.083 319.773 263.037 319.793C262.992 319.813 262.951 319.842 262.916 319.878C262.882 319.914 262.855 319.957 262.837 320.003L255.759 338.252L237.51 331.175C237.416 331.138 237.312 331.14 237.22 331.181C237.127 331.221 237.055 331.297 237.018 331.39C236.982 331.484 236.984 331.589 237.024 331.681C237.065 331.773 237.14 331.846 237.234 331.882L255.485 338.962L248.406 357.211C248.388 357.257 248.379 357.307 248.38 357.357C248.381 357.407 248.392 357.456 248.412 357.501C248.433 357.547 248.461 357.588 248.497 357.622C248.534 357.657 248.576 357.684 248.622 357.702C248.669 357.72 248.718 357.728 248.768 357.727C248.818 357.726 248.867 357.715 248.913 357.695C248.958 357.675 248.999 357.646 249.034 357.61C249.068 357.574 249.095 357.532 249.113 357.485L256.193 339.236C274.627 346.384 274.379 346.34 274.581 346.34C274.669 346.338 274.753 346.306 274.82 346.25C274.887 346.193 274.933 346.115 274.949 346.029C274.965 345.942 274.951 345.853 274.909 345.776C274.867 345.699 274.799 345.639 274.718 345.606V345.606Z" fill="black"/>
<path d="M4.24488 191.396C6.20626 185.823 13.9208 184.823 15.8721 179.189C16.1774 178.408 16.3163 177.571 16.2799 176.734C16.2434 175.896 16.0324 175.075 15.6604 174.323C15.2883 173.572 14.7634 172.906 14.1192 172.369C13.4751 171.832 12.7259 171.435 11.9196 171.205C11.1133 170.974 10.2678 170.914 9.43704 171.029C8.60632 171.144 7.80874 171.431 7.09539 171.872C6.38204 172.313 5.76862 172.898 5.29443 173.59C4.82024 174.281 4.49571 175.064 4.34164 175.889C4.32319 175.988 4.26621 176.075 4.18323 176.132C4.10025 176.189 3.99807 176.211 3.89917 176.192C3.80026 176.174 3.71273 176.117 3.65584 176.034C3.59894 175.951 3.57734 175.849 3.59579 175.75C3.76924 174.822 4.13425 173.942 4.6675 173.163C5.20074 172.385 5.89048 171.727 6.69262 171.23C7.49477 170.734 8.39167 170.41 9.326 170.28C10.2603 170.15 11.2115 170.216 12.1188 170.475C13.0261 170.733 13.8695 171.178 14.595 171.781C15.3206 172.384 15.9124 173.131 16.3326 173.976C16.7528 174.821 16.9922 175.743 17.0354 176.686C17.0786 177.628 16.9248 178.569 16.5836 179.449C15.87 181.519 14.842 182.978 10.9394 185.633C6.90776 188.381 5.67207 189.618 4.95847 191.648C4.9212 191.738 4.85111 191.81 4.76258 191.849C4.67406 191.888 4.57383 191.892 4.48249 191.86C4.39115 191.828 4.31562 191.762 4.27143 191.675C4.22724 191.589 4.21774 191.489 4.24488 191.396V191.396Z" fill="black"/>
<path d="M0.87233 197.595C0.567936 197.937 0.407348 198.384 0.424033 198.841C0.440718 199.299 0.633388 199.733 0.961891 200.052C1.29039 200.371 1.72939 200.551 2.18738 200.555C2.64537 200.558 3.08703 200.385 3.42031 200.07C3.72471 199.728 3.8853 199.282 3.86861 198.824C3.85193 198.366 3.65926 197.933 3.33075 197.614C3.00225 197.294 2.56326 197.114 2.10527 197.111C1.64727 197.107 1.20561 197.281 0.87233 197.595V197.595Z" fill="black"/>
<path d="M300.261 138.913C305.905 137.796 309.031 133.764 309.588 126.933C309.596 126.833 309.564 126.733 309.499 126.656C309.434 126.58 309.341 126.532 309.241 126.524C309.141 126.515 309.041 126.547 308.965 126.612C308.888 126.677 308.84 126.77 308.832 126.87C308.308 133.321 305.375 137.125 300.113 138.169C300.015 138.188 299.928 138.246 299.872 138.33C299.816 138.413 299.796 138.516 299.815 138.614C299.835 138.713 299.892 138.8 299.976 138.856C300.06 138.912 300.162 138.932 300.261 138.913V138.913Z" fill="black"/>
<path d="M324.89 232.206C322.548 230.474 319.89 229.218 317.064 228.512C313.385 227.667 309.346 229.144 305 230.279C303.548 227.838 301.976 226.695 300.41 226.971L232.035 237.153L225.877 209.928C224.246 202.534 220.673 195.709 215.527 190.155C210.381 184.602 203.848 180.521 196.599 178.332C197.021 176.354 199.605 163.909 200.496 160.19C230.07 161.217 259.648 158.274 288.44 151.439C289.276 151.401 290.762 150.846 291.973 148.3C306.749 146.811 311.325 145.623 323.041 143.882C325.174 143.565 333.586 142.344 333.346 140.223C333.229 139.185 331.129 138.685 327.129 138.741C324.758 138.77 322.388 138.597 320.046 138.223C321.594 137.798 324.361 136.97 329.385 135.413C333.013 134.293 335.013 132.952 334.761 131.827C334.44 130.396 331.004 130.575 328.175 130.975C325.847 131.32 323.499 131.522 321.146 131.579C323.656 130.489 328.462 128.34 332.312 126.27C335.319 124.657 336.789 123.119 336.343 122.065C335.88 120.958 333.535 120.97 329.911 122.095C329.292 122.297 322.521 124.165 318.018 125.411C319.932 123.591 322.025 121.97 324.267 120.573C327.01 118.829 328.375 117.112 327.827 116.096C327.254 115.038 325.004 115.302 321.628 116.822C321.078 117.074 311.073 121.373 311.073 121.373C309.307 122.125 306.334 122.75 305.846 122.075C303.703 119.091 305.187 109.907 301.496 109.329C301.315 109.299 301.131 109.307 300.953 109.353C300.776 109.398 300.61 109.48 300.466 109.593C298.853 110.802 298.579 115.842 297.954 119.744C297.589 121.996 294.155 124.024 291.578 124.201C291.51 124.201 291.284 124.224 290.381 124.326C289.391 122.655 287.623 120.658 285.767 120.946C270.465 122.931 200.633 131.563 187.036 124.062C184.545 122.706 182.253 120.289 182.319 111.917C184.061 111.385 193.181 108.313 195.106 101.838C196.154 98.3265 194.864 94.4602 191.276 90.3479C192.777 91.1174 194.442 91.5129 196.13 91.501C206.739 91.501 213.153 78.1079 205.832 71.0929C203.499 69.0984 200.472 68.1093 197.411 68.342C194.351 68.5747 191.508 70.0104 189.504 72.3347C187.714 74.0959 186.516 76.3696 186.075 78.8415C185.633 81.3133 185.971 83.8612 187.04 86.1329C178.8 79.2005 172.178 81.4381 167.429 90.1C164.203 95.9781 162.29 105.942 164.705 111.685C165.191 113.097 166.173 114.284 167.469 115.026C168.764 115.768 170.285 116.013 171.749 115.717C172.062 116.481 172.272 117.283 172.375 118.102C172.434 119.144 171.343 123.947 170.41 124.466C160.391 130.071 138.919 123.919 128.009 120.297L117.259 85.9756C116.783 84.4336 113.568 84.7097 111.964 84.8932C110.754 80.66 109.037 73.905 108.2 68.8695C107.323 63.6022 106.656 60.1289 105.414 59.8225C102.882 59.1916 102.084 70.9962 101.949 73.6107C100.41 74.9413 99.4567 76.8239 99.2943 78.8518C98.8367 82.8834 100.806 86.274 101.409 86.274C101.481 86.2741 101.551 86.2537 101.612 86.2152C101.673 86.1766 101.722 86.1216 101.752 86.0564C101.783 85.9913 101.794 85.9188 101.785 85.8473C101.776 85.7759 101.747 85.7085 101.701 85.6531C100.342 83.6949 99.7533 81.3039 100.048 78.9385C100.119 78.0054 100.377 77.0962 100.807 76.265C101.237 75.4338 101.829 74.6977 102.55 74.1005C102.593 74.067 102.629 74.0245 102.655 73.9757C102.68 73.9269 102.695 73.8732 102.697 73.8183C102.697 73.7135 103.221 63.0982 104.973 60.7821C105.106 60.6047 105.211 60.5523 105.233 60.5583C106.084 60.7599 107.009 66.3235 107.45 68.9945C108.273 73.9251 109.924 80.4846 111.2 84.9899C105.331 85.9393 99.6236 87.7034 94.2427 90.231C92.0944 84.9707 90.4823 79.5071 89.4309 73.9231L88.6891 74.0723C89.7559 79.7229 91.3903 85.2514 93.5674 90.5737C92.1825 91.3115 89.5479 92.8173 90.0196 94.3151C107.759 150.78 107.464 148.635 107.658 148.837L107.726 148.885C120.709 155.529 134.954 159.342 149.52 160.071C150.635 167.445 154.435 177.298 161.129 190.173C115.298 249.988 101.639 270.811 47.4598 322.069C45.6919 323.682 45.2545 326.236 46.1858 329.475C40.991 333.553 31.5591 340.847 25.2214 345.076C10.7458 354.74 9.05861 357.334 9.20576 358.517C10.0867 365.736 34.1675 354.687 46.4156 355.695C49.3116 356.001 52.2397 355.739 55.0352 354.923C58.2746 353.903 60.8367 351.075 63.427 348.42C66.0475 349.428 68.8556 349.724 70.9258 347.841C119.083 304.36 147.414 279.443 187.194 229.775L206.67 263.224C208.905 267.042 212.256 270.083 216.273 271.938C220.289 273.794 224.777 274.374 229.133 273.601L306.362 259.706C308.328 259.372 309.132 256.894 309.448 255.271C315.294 254.451 329.125 252.59 337.787 252.09C355.159 251.095 357.929 249.712 358.402 248.617C361.293 241.937 334.916 239.266 324.89 232.206ZM225.135 210.089C227.353 220.269 226.024 213.822 231.372 237.663C231.391 237.747 231.438 237.822 231.505 237.876C231.572 237.929 231.655 237.959 231.741 237.96L286.551 229.802C289.649 229.28 292.467 241.852 293.054 245.299L228.05 253.751C226.395 253.963 224.719 253.594 223.305 252.709C221.892 251.823 220.829 250.475 220.297 248.893C216.901 238.734 211.049 220.345 209.999 211.337C208.281 196.621 191.655 187.701 188.073 185.938C191.067 184.181 193.823 182.046 196.271 179.584C196.38 179.473 196.382 179.342 196.44 179.068C203.549 181.22 209.956 185.229 215 190.682C220.044 196.135 223.542 202.834 225.135 210.089ZM328.282 131.724C332.773 131.085 333.961 131.724 334.021 131.991C334.1 132.339 332.983 133.502 329.161 134.688C326.659 135.462 319.134 137.79 318.229 137.889C317.02 137.637 316.119 137.387 315.687 137.258C315.902 135.509 315.922 133.742 315.746 131.989C319.916 132.505 324.138 132.416 328.282 131.724ZM330.139 122.809C333.812 121.666 335.469 121.918 335.648 122.347C335.813 122.75 334.957 123.974 331.953 125.59C326.881 128.316 320.132 131.184 319.253 131.557C318.044 131.544 316.839 131.423 315.651 131.196C315.442 129.812 315.105 128.45 314.643 127.128C315.556 126.876 329.308 123.065 330.139 122.809ZM291.607 124.939C294.542 124.738 298.281 122.47 298.704 119.845C299.158 117.023 299.674 109.805 301.381 110.059C304.171 110.496 303.089 119.509 305.233 122.496C306.358 124.06 311.323 122.073 311.376 122.051C311.376 122.051 321.388 117.747 321.942 117.491C325.335 115.963 326.942 116.031 327.161 116.435C327.341 116.771 326.772 118.063 323.862 119.914C321.186 121.54 318.74 123.519 316.591 125.796L314.373 126.401C314.045 125.53 313.653 124.629 313.196 123.689C313.152 123.599 313.074 123.53 312.978 123.497C312.883 123.465 312.779 123.471 312.689 123.515C312.599 123.559 312.529 123.637 312.497 123.732C312.464 123.828 312.47 123.932 312.515 124.022C314.998 128.75 315.736 134.202 314.599 139.421C314.587 139.517 314.613 139.614 314.671 139.692C314.729 139.77 314.815 139.823 314.911 139.839C315.006 139.856 315.105 139.835 315.185 139.781C315.266 139.727 315.323 139.645 315.345 139.55C315.435 139.032 315.514 138.522 315.583 138.016C319.343 139.052 323.231 139.55 327.131 139.493C331.566 139.433 332.574 140.112 332.584 140.3C332.594 140.487 331.798 141.39 327.7 142.259C326.022 142.61 324.414 142.902 322.922 143.124C308.642 145.246 305.221 146.454 284.793 148.121C281.403 142.932 280.235 132.295 282.352 125.875C294.588 124.641 290.925 124.969 291.607 124.939ZM170.783 125.121C172.132 124.367 173.079 119.43 173.135 118.219C175.486 115.552 176.29 114.673 176.591 114.314C176.971 113.86 176.782 113.445 176.292 113.576C175.939 113.671 175.323 113.967 174.172 114.35C171.275 115.308 168.416 115.509 166.475 113.171C163.371 109.434 164.095 100.649 166.344 94.307L167.681 91.2188C171.791 83.4579 178.088 85.7438 179.548 94.3735C179.697 95.46 180.406 95.7523 180.874 95.5548C182.201 95.2524 182.878 94.1256 184.079 94.1578C186.214 94.2183 186.956 98.2156 183.003 99.54L182.956 99.5582C182.903 99.5854 182.857 99.6251 182.822 99.6738C182.787 99.7226 182.764 99.779 182.755 99.8384C182.076 103.728 181.68 107.662 181.572 111.609C181.445 120.631 184.083 123.3 186.68 124.711C189.923 126.156 193.403 126.998 196.948 127.197C183.039 130.374 170.815 130.465 159.765 127.473C163.575 127.607 167.359 126.799 170.783 125.121ZM150.222 159.647C149.476 154.63 150.127 149.504 152.102 144.831C152.123 144.772 152.128 144.708 152.118 144.646C152.107 144.585 152.082 144.526 152.043 144.477C152.004 144.427 151.954 144.388 151.896 144.363C151.839 144.338 151.776 144.328 151.713 144.333C151.326 144.404 151.848 143.46 145.442 159.017C132.463 157.853 119.828 154.209 108.222 148.284L90.7432 94.0853C90.6586 93.8091 90.84 93.4805 91.1605 93.1378C94.0895 90.0335 106.128 86.407 111.655 85.6894C111.857 85.7075 116.181 85.0564 116.536 86.2014C127.683 122.224 127.252 120.712 127.51 120.91C128.137 121.272 144.674 126.804 156.876 127.405C170.801 131.876 185.22 130.902 199.299 127.405C221.289 129.152 261.69 124.76 283.719 121.948C278.242 127.241 280.292 147.75 286.692 151.048C261.526 156.84 235.784 159.753 209.96 159.732C203.221 149.905 203.425 150.129 203.256 149.988L203.233 149.97C203.174 149.93 203.105 149.909 203.034 149.906C202.962 149.904 202.892 149.922 202.83 149.957L202.804 149.974C201.191 151.235 196.138 176.832 195.642 179.134C187.78 187.198 170.356 194.858 161.857 189.927C155.076 176.901 151.27 166.991 150.224 159.647H150.222ZM70.4219 347.277C62.8485 354.159 40.477 329.447 47.9698 322.626C50.6266 320.11 53.2115 317.636 55.7246 315.203C54.6723 322.561 70.9057 340.907 77.9932 340.429C75.5326 342.661 73.0088 344.944 70.4219 347.277ZM84.0931 334.916C82.5772 336.289 81.0694 337.704 79.4789 339.091C77.4167 340.905 72.9053 338.405 68.4726 334.394C107.148 298.142 143.951 259.942 178.737 219.942L182.924 233.874C147.752 276.56 128.495 294.761 84.0931 334.916ZM292.286 261.466L228.989 272.853C224.787 273.598 220.457 273.038 216.582 271.248C212.707 269.458 209.474 266.524 207.317 262.841L176.498 209.91C176.451 209.83 176.376 209.771 176.288 209.743C176.2 209.714 176.105 209.719 176.021 209.756C175.936 209.793 175.868 209.859 175.829 209.943C175.79 210.026 175.782 210.121 175.808 210.21L178.475 219.08C143.602 259.207 106.7 297.524 67.9122 333.882C66.6137 332.664 65.3772 331.382 64.2071 330.04C58.8007 323.845 54.6018 316.248 57.1719 313.808C75.0493 296.924 91.9223 279.007 107.704 260.15C123.168 241.82 137.51 222.252 161.678 190.701C168.586 194.499 180.3 190.415 187.278 186.409C189.345 187.379 207.473 196.287 209.239 211.426C210.297 220.497 216.167 238.947 219.572 249.135C220.158 250.883 221.333 252.374 222.895 253.353C224.458 254.333 226.312 254.74 228.141 254.505L293.177 246.049C293.782 249.414 294.064 252.83 294.019 256.249C293.915 259.382 293.294 261.283 292.286 261.466ZM306.229 258.956L293.755 261.202C296.779 256.277 292.614 233.279 288.045 229.578L300.516 227.721C306.973 226.538 312.646 257.886 306.235 258.956H306.229Z" fill="black"/>
<path d="M174.42 140.858C174.828 140.823 175.217 140.667 175.537 140.41C175.857 140.154 176.093 139.808 176.217 139.417C176.34 139.026 176.345 138.608 176.23 138.214C176.115 137.82 175.887 137.47 175.573 137.206C175.259 136.943 174.873 136.778 174.466 136.734C174.058 136.689 173.647 136.766 173.283 136.956C172.92 137.145 172.62 137.438 172.423 137.798C172.226 138.157 172.14 138.567 172.176 138.975C172.2 139.246 172.276 139.51 172.402 139.752C172.527 139.993 172.699 140.207 172.907 140.382C173.116 140.557 173.357 140.689 173.616 140.771C173.876 140.853 174.149 140.882 174.42 140.858V140.858Z" fill="black"/>
<path d="M171.045 154.824C171.453 154.788 171.841 154.632 172.16 154.376C172.479 154.119 172.715 153.774 172.838 153.384C172.962 152.993 172.966 152.575 172.851 152.182C172.737 151.789 172.508 151.439 172.195 151.175C171.881 150.912 171.497 150.748 171.09 150.703C170.683 150.659 170.272 150.736 169.908 150.925C169.545 151.114 169.246 151.406 169.049 151.765C168.852 152.124 168.766 152.533 168.802 152.941C168.825 153.212 168.901 153.476 169.027 153.717C169.152 153.959 169.324 154.173 169.533 154.348C169.741 154.523 169.982 154.655 170.241 154.736C170.501 154.818 170.774 154.848 171.045 154.824Z" fill="black"/>
<path d="M171.045 170.4C171.454 170.364 171.842 170.208 172.162 169.952C172.482 169.696 172.719 169.35 172.842 168.959C172.966 168.568 172.97 168.149 172.856 167.756C172.741 167.362 172.512 167.011 172.198 166.748C171.884 166.484 171.499 166.32 171.091 166.275C170.684 166.231 170.272 166.308 169.909 166.497C169.545 166.687 169.246 166.98 169.049 167.339C168.852 167.699 168.766 168.109 168.802 168.517C168.825 168.788 168.902 169.052 169.027 169.293C169.153 169.535 169.324 169.749 169.533 169.924C169.741 170.099 169.982 170.231 170.242 170.313C170.501 170.394 170.774 170.424 171.045 170.4V170.4Z" fill="black"/>
</svg>
