<svg width="220" height="220" viewBox="0 0 220 220" fill="none" xmlns="http://www.w3.org/2000/svg">
<path d="M211.614 110.108C211.614 166.169 166.168 211.614 110.108 211.614C54.0479 211.614 8.60205 166.169 8.60205 110.108C8.60205 54.0481 54.0479 8.60222 110.108 8.60222C166.168 8.60222 211.614 54.0481 211.614 110.108Z" stroke="#F7AF18" stroke-width="3.44089"/>
<path d="M127.313 110.108C127.313 119.61 119.61 127.313 110.108 127.313C100.606 127.313 92.9037 119.61 92.9037 110.108C92.9037 100.607 100.606 92.9039 110.108 92.9039C119.61 92.9039 127.313 100.607 127.313 110.108Z" stroke="#F7AF18" stroke-width="3.44089"/>
<path d="M144.517 110.108C144.517 129.112 129.112 144.517 110.108 144.517C91.1047 144.517 75.6993 129.112 75.6993 110.108C75.6993 91.1048 91.1047 75.6995 110.108 75.6995C129.112 75.6995 144.517 91.1048 144.517 110.108Z" stroke="#F7AF18" stroke-width="3.44089"/>
<path d="M161.721 110.108C161.721 138.614 138.613 161.722 110.108 161.722C81.6029 161.722 58.4949 138.614 58.4949 110.108C58.4949 81.6031 81.6029 58.4951 110.108 58.4951C138.613 58.4951 161.721 81.6031 161.721 110.108Z" stroke="#F7AF18" stroke-width="3.44089"/>
<path d="M178.926 110.108C178.926 148.115 148.115 178.926 110.108 178.926C72.1012 178.926 41.2905 148.115 41.2905 110.108C41.2905 72.1014 72.1012 41.2906 110.108 41.2906C148.115 41.2906 178.926 72.1014 178.926 110.108Z" stroke="#F7AF18" stroke-width="3.44089"/>
<path d="M196.13 110.108C196.13 157.617 157.617 196.13 110.108 196.13C62.5995 196.13 24.086 157.617 24.086 110.108C24.086 62.5996 62.5995 24.0862 110.108 24.0862C157.617 24.0862 196.13 62.5996 196.13 110.108Z" stroke="#F7AF18" stroke-width="3.44089"/>
</svg>
