<svg width="220" height="220" viewBox="0 0 220 220" fill="none" xmlns="http://www.w3.org/2000/svg">
<path d="M209.276 108.892C209.276 164.332 164.333 209.276 108.892 209.276M209.276 108.892C209.276 53.4508 164.333 8.50714 108.892 8.50714M209.276 108.892H8.50732M108.892 209.276C53.451 209.276 8.50732 164.332 8.50732 108.892M108.892 209.276C142.25 209.276 169.293 164.332 169.293 108.892C169.293 53.4508 142.25 8.50714 108.892 8.50714M108.892 209.276C75.5334 209.276 48.491 164.332 48.491 108.892C48.491 53.4508 75.5334 8.50714 108.892 8.50714M108.892 209.276C120.168 209.276 129.309 164.332 129.309 108.892C129.309 53.4508 120.168 8.50714 108.892 8.50714M108.892 209.276C97.6157 209.276 88.4746 164.332 88.4746 108.892C88.4746 53.4508 97.6157 8.50714 108.892 8.50714M8.50732 108.892C8.50732 53.4508 53.451 8.50714 108.892 8.50714M34.0288 42.5358H184.18M33.6035 175.248H184.18" stroke="#F7AF18" stroke-width="3.40286"/>
</svg>
